<?xml version="1.0" standalone="no"?>
<!DOCTYPE svg PUBLIC "-//W3C//DTD SVG 1.1//EN" "http://www.w3.org/Graphics/SVG/1.1/DTD/svg11.dtd" >
<svg xmlns="http://www.w3.org/2000/svg">
<metadata></metadata>
<defs>
<font id="irisupcregular" horiz-adv-x="655" >
<font-face units-per-em="2048" ascent="1638" descent="-410" />
<missing-glyph horiz-adv-x="448" />
<glyph horiz-adv-x="2048" />
<glyph horiz-adv-x="2048" />
<glyph unicode="&#xd;" horiz-adv-x="2048" />
<glyph unicode=" "  horiz-adv-x="448" />
<glyph unicode="&#x09;" horiz-adv-x="448" />
<glyph unicode="&#xa0;" horiz-adv-x="448" />
<glyph unicode="!" horiz-adv-x="436" d="M156 66q0 29 22 51.5t54 22.5q30 0 51.5 -22t21.5 -52q0 -31 -21.5 -52.5t-51.5 -21.5q-31 0 -53.5 22t-22.5 52zM166 828q0 30 18 53.5t48 23.5t46.5 -26.5t16.5 -57.5q0 -14 -4 -47l-47 -553h-27l-47 551q-4 38 -4 56z" />
<glyph unicode="&#x22;" horiz-adv-x="436" d="M68 586v221q0 60 9 82.5t33 22.5q29 0 37.5 -23.5t8.5 -81.5v-221q0 -40 -8 -59q-10 -19 -38 -19q-25 0 -33.5 16t-8.5 62zM280 586v221q0 60 10 82.5t36 22.5q29 0 35.5 -23t6.5 -82v-221q0 -41 -7 -59.5t-35 -18.5q-26 0 -36 16t-10 62z" />
<glyph unicode="#" horiz-adv-x="729" d="M43 282v74h151l29 174h-145v74h156l40 266h76l-41 -266h175l38 266h76l-39 -266h127v-74h-137l-27 -174h132v-74h-142l-41 -282h-75l38 282h-174l-43 -282h-77l44 282h-141zM270 356h176l27 174h-174z" />
<glyph unicode="$" horiz-adv-x="729" d="M58 53q2 12 8.5 36.5t10 41.5t3.5 35h14q41 -62 87.5 -94.5t115.5 -32.5l2 367q-15 6 -42 17t-50 19q-56 24 -92.5 80.5t-36.5 116.5q0 104 62 164.5t161 74.5v64v39q3 -4 11 -4q32 0 44 4v-99h10q114 0 185 -58q-25 -70 -33 -105h-14q-50 107 -148 113l-4 -330 q14 -4 44 -16q12 -7 56 -27q20 -10 52 -27q34 -24 57 -64q27 -54 27 -98q0 -75 -30.5 -133.5t-85 -94.5t-122.5 -48l2 -146q-2 0 -6 1t-6 1q-28 0 -47 -2l4 107v31q-9 -2 -29 -2q-54 0 -116 18q-60 19 -94 51zM180 680q0 -100 90 -142q28 -12 31 -12v302 q-54 -12 -87.5 -52.5t-33.5 -95.5zM348 45q64 14 100 60t36 116q0 65 -46 109q-30 27 -86 51z" />
<glyph unicode="%" horiz-adv-x="1165" d="M60 662q0 94 63 155t155 61q60 0 105.5 -27t70.5 -76t25 -107t-28 -109t-76.5 -82t-106.5 -31q-64 0 -111 28t-72 77t-25 111zM154 645q0 -68 25.5 -117t86.5 -49q64 0 90.5 59.5t26.5 133.5q-1 174 -107 174q-122 0 -122 -201zM293 -43l487 955l14 -2l27 -2l9 2l12 2 l-488 -955l-14 4h-20l-17 -2zM678 198q0 94 63 157t156 63q59 0 105 -28t71 -77t25 -108q0 -60 -29.5 -111.5t-81.5 -81.5q-46 -26 -100 -26q-94 0 -151.5 60t-57.5 152zM772 182q0 -68 25.5 -117t86.5 -49q64 0 91 60t27 133q0 176 -107 176q-123 -1 -123 -203z" />
<glyph unicode="&#x26;" horiz-adv-x="946" d="M94 200q0 93 80 177q48 48 150 100l8 5q-48 70 -68 111t-20 93q0 88 70 148q50 44 132 44q72 0 124 -36q48 -40 48 -100q0 -74 -48 -128t-130 -110q130 -167 162 -203l70 -80l6 9q14 18 39 59q37 54 65 104q15 25 33 61q11 14 13 25q0 -4 4 -8q2 -6 10 -15l8 -10 q2 -2 12 -8.5t14 -11.5q-94 -142 -176 -240l164 -188q-54 4 -80 4q-28 0 -76 -4q-52 76 -82 110q-114 -126 -282 -126q-112 0 -182 59q-68 67 -68 159zM200 232q0 -81 64 -142q51 -51 129 -51q110 0 199 86q4 4 8 12q-148 177 -246 313q-4 -3 -6.5 -4.5t-3.5 -3.5 q-144 -88 -144 -210zM336 721q0 -77 82 -189q133 94 133 201q0 48 -28.5 79.5t-76.5 31.5q-52 0 -84 -43q-26 -30 -26 -80z" />
<glyph unicode="'" horiz-adv-x="364" d="M137 586v221q0 58 8.5 81.5t36.5 23.5q25 0 34.5 -22t9.5 -83v-221q0 -44 -10 -61t-34 -17q-29 0 -37 17t-8 61z" />
<glyph unicode="(" horiz-adv-x="364" d="M82 368q0 152 53 288.5t156 244.5l27 -23q-84 -111 -118 -240.5t-34 -287.5q0 -137 34 -266q24 -92 107 -221q4 -4 6.5 -7.5t4.5 -7.5l-27 -24q-57 64 -96 125t-64.5 128t-37 139t-11.5 152z" />
<glyph unicode=")" horiz-adv-x="364" d="M49 -152q1 3 4 6.5t5 8.5q87 131 112 237q28 122 28 266q0 314 -149 512l25 23q102 -105 155 -243t53 -290q0 -166 -48 -293t-160 -251z" />
<glyph unicode="*" horiz-adv-x="581" d="M70 752q28 32 36 65l166 -117l-18 201q50 0 76 2l-21 -207l164 123q9 -21 39 -67l-184 -84l184 -80q-25 -40 -37 -66l-168 117l23 -205h-76l18 201l-160 -117q-24 40 -30 52l-8 12l184 86z" />
<glyph unicode="+" horiz-adv-x="794" d="M68 291v84h286v287h84v-287h289v-84h-289v-291h-84v291h-286z" />
<glyph unicode="," horiz-adv-x="364" d="M60 -211l92 291q21 76 59 76q48 0 55 -50q-2 -28 -30 -71l-154 -256z" />
<glyph unicode="-" horiz-adv-x="436" d="M53 268v80h328v-80h-328z" />
<glyph unicode="." horiz-adv-x="364" d="M119 66q0 30 22.5 52t52.5 22t52 -22t22 -52q0 -32 -21 -53t-53 -21q-30 0 -52.5 22t-22.5 52z" />
<glyph unicode="/" horiz-adv-x="364" d="M-64 -140l416 1121l12 -2l21 -2h19l24 4l-426 -1118l-24 4l-13 -2z" />
<glyph unicode="0" horiz-adv-x="762" d="M60 127v647q0 49 32 88q36 39 80 39h346q58 0 92 -41q30 -36 31 -80v-659q-1 -44 -31 -80q-35 -41 -92 -41h-346q-44 0 -80 39q-32 39 -32 88zM194 140q0 -30 17 -52q12 -20 35 -20h182q56 0 68 18q10 14 10 49v631q0 32 -10 49q-11 19 -68 19h-182q-20 0 -35 -21 q-17 -22 -17 -51v-622z" />
<glyph unicode="1" horiz-adv-x="762" d="M170 690v48l33 8t98 48q28 18 43 40.5t22.5 44.5t8.5 22h65v-901h-135v690h-135z" />
<glyph unicode="2" horiz-adv-x="762" d="M60 0v246q0 24 12 43q14 23 30 29l363 222q23 10 33 38q8 16 8 38v142q0 40 -12 59q-14 19 -66 19h-182q-22 0 -35 -21q-17 -19 -17 -53v-203h-134v215q0 42 38 84q40 43 74 43h346q58 0 96 -45q26 -36 27 -76v-149q-1 -35 -17 -63q-8 -14 -19 -23.5t-29 -19t-27 -15.5 l-317 -196q-26 -12 -36 -36q-2 -8 -2 -55v-157h447v-66h-581z" />
<glyph unicode="3" horiz-adv-x="762" d="M60 127v215h134v-202q0 -39 17 -54q15 -18 35 -18h182q52 0 66 18q12 18 12 60v210q0 22 -8 42q-15 34 -33 34h-225v82h198q40 0 54 8q14 14 14 41v191q0 43 -12 61q-14 19 -66 19h-182q-20 0 -35 -19q-17 -16 -17 -53v-154h-134v166q0 42 38 84q40 43 74 43h346 q58 0 96 -45q26 -36 27 -76v-208q-1 -50 -25 -74q-16 -15 -31 -21.5t-15 -7.5l24 -15q24 -14 30 -28q16 -36 17 -102v-203q-1 -40 -27 -76q-39 -45 -96 -45h-346q-24 0 -37 9t-37 34q-38 42 -38 84z" />
<glyph unicode="4" horiz-adv-x="805" d="M62 226v130l372 545h172v-598h82v-77h-82v-226h-135v226h-409zM123 303h348v521z" />
<glyph unicode="5" horiz-adv-x="762" d="M60 127v139h134v-126q0 -36 11 -54q16 -26 45 -26h186q40 0 58 26q12 18 12 58v368q0 27 -10 43q-16 25 -44 25h-166q-42 0 -69 -56q-12 -18 -19 -42l-6 -23h-132v442h581v-69h-447v-232q2 0 14 15t20 18q37 16 61 16h237q12 0 36 -11q25 -12 40 -26q39 -35 39 -67v-424 q-1 -40 -27 -76q-39 -45 -96 -45h-346q-42 0 -76 41q-36 40 -36 86z" />
<glyph unicode="6" horiz-adv-x="762" d="M60 127v653q0 44 26 76q36 45 94 45h348q38 0 76 -41q37 -40 37 -86v-102h-135v90q0 34 -12 53q-14 27 -46 27h-184q-39 0 -59 -27q-11 -18 -11 -57q0 -33 2 -82q1 -50 7 -50h325q39 0 76 -40t37 -86v-379q-1 -40 -27 -76q-39 -45 -96 -45h-346q-48 0 -82 37 q-30 33 -30 90zM194 140q0 -36 11 -54q16 -26 45 -26h186q40 0 58 26q12 18 12 58v344q0 34 -12 52q-14 28 -46 28h-184q-38 0 -59 -28q-11 -18 -11 -58v-342z" />
<glyph unicode="7" horiz-adv-x="764" d="M60 608v162q0 62 38 96t82 35h414q42 0 53 -39q0 -28 -4 -49l-229 -813h-156l289 794q4 22 4 32q-4 10 -39 10h-264q-28 0 -39 -17q-15 -15 -15 -37v-174h-134z" />
<glyph unicode="8" horiz-adv-x="762" d="M60 127v275q0 45 9 75.5t37 54.5q12 10 36 20t24 11t-14.5 10t-22.5 23q-15 36 -15 49v164q0 29 7 41t25 30q18 20 57 21h295q42 -1 65 -31q21 -26 21 -63v-166q0 -18 -10 -45q-5 -8 -17 -18q-13 -10 -19 -15q17 0 42.5 -17.5t39.5 -43.5q20 -34 21 -92v-289 q-1 -44 -31 -80q-35 -41 -92 -41h-346q-44 0 -80 39q-32 39 -32 88zM194 140q0 -30 17 -52q12 -20 35 -20h182q56 0 68 18q10 14 10 49v334q0 41 -16 55q-16 18 -46 18h-184q-32 0 -47 -14q-19 -14 -19 -51v-337zM250 676q0 -18 12 -45q9 -21 41 -21h95q32 0 44 21 q6 16 6 53v86q0 39 -8 49q-12 19 -32 19h-105q-30 0 -41 -17q-12 -12 -12 -49v-96z" />
<glyph unicode="9" horiz-adv-x="762" d="M60 127v86h134v-73q0 -30 17 -52q12 -20 35 -20h182q56 0 68 18q10 14 10 49v197l20 16q0 -16 -13 -43t-27 -31q-12 -2 -36 -2h-252q-54 0 -92 31q-46 38 -46 131v340q0 49 32 88q36 39 80 39h346q58 0 92 -41q30 -36 31 -80v-659q-1 -44 -31 -80q-35 -41 -92 -41h-346 q-44 0 -80 39q-32 39 -32 88zM194 408q0 -38 21 -52q14 -14 47 -14h184q34 0 46 18q14 16 14 56v350q0 32 -10 49q-11 19 -68 19h-182q-20 0 -35 -21q-17 -22 -17 -51v-354z" />
<glyph unicode=":" horiz-adv-x="346" d="M62 96q0 39 25 67.5t63 28.5q40 -2 66 -31t28 -67q0 -40 -25 -67t-67 -27q-36 0 -63 29t-27 67zM62 465q0 39 25 67.5t63 28.5q40 -2 66 -31t28 -67q0 -40 -25 -67.5t-67 -27.5q-36 0 -63 29t-27 68z" />
<glyph unicode=";" horiz-adv-x="346" d="M62 465q0 39 25 67.5t63 28.5q40 -2 66 -31t28 -67q0 -40 -25 -67.5t-67 -27.5q-36 0 -63 29t-27 68zM66 108q0 24 6 36q20 44 82 44q90 0 90 -137q-3 -46 -28.5 -101.5t-55.5 -96.5t-39 -45q-39 0 -39 12q0 2 17 31t30 64t13 71q-2 24 -50 59q-26 27 -26 63z" />
<glyph unicode="&#x3c;" horiz-adv-x="794" d="M64 297v71l667 308v-82l-561 -260l561 -262v-80z" />
<glyph unicode="=" horiz-adv-x="794" d="M68 164v84h659v-84h-659zM68 418v84h659v-84h-659z" />
<glyph unicode="&#x3e;" horiz-adv-x="794" d="M64 -8v80l560 262l-560 260v82l665 -308v-71z" />
<glyph unicode="?" horiz-adv-x="674" d="M62 956q0 39 31 80.5t81 67.5t100 26q74 0 142 -37t110 -101t46 -140q0 -72 -18 -125t-64 -103q-88 -94 -220 -94q-30 0 -44 2v-252h-95v290q43 -14 90 -15q141 0 225 127q42 64 42 176q0 61 -28.5 114.5t-78 85.5t-109.5 32q-100 -4 -112 -62q0 -10 17 -26.5t25.5 -28.5 t8.5 -37q0 -30 -23.5 -49t-56.5 -19q-30 2 -49 28q-18 26 -20 60zM80 100q0 37 27.5 67.5t66.5 32.5q42 0 72 -30q30 -32 30 -72q-2 -42 -32 -70t-72 -28q-39 3 -65.5 31.5t-26.5 68.5z" />
<glyph unicode="@" horiz-adv-x="1048" d="M66 436q0 130 63 240t174 173t246 63q159 0 289 -95q146 -105 145 -277q0 -156 -96 -251q-43 -43 -101.5 -76t-107.5 -33q-46 0 -72 33q-24 33 -28 78q-44 -55 -76.5 -79t-83.5 -24q-74 0 -123 54q-53 56 -53 135q0 70 39.5 138.5t106 112.5t138.5 44q96 0 117 -100 l23 86h114l-100 -365q-2 -8 -4 -15.5t-2 -15.5q0 -43 36 -43q32 0 71 32.5t63 66.5q70 90 70 218q0 132 -107 220q-110 90 -250 90q-118 0 -214 -51t-151 -142t-55 -207t56.5 -208t154.5 -142.5t217 -50.5q102 0 187 49q85 50 145 136h80q-40 -74 -105.5 -131t-146 -88 t-166.5 -31q-133 0 -247 58t-180 163t-66 235zM358 338q0 -44 20 -80q18 -35 60 -35q54 0 94.5 56.5t62 133t21.5 125.5q0 36 -17 66.5t-50 30.5q-54 0 -97.5 -52.5t-68.5 -123.5t-25 -121z" />
<glyph unicode="A" horiz-adv-x="874" d="M20 0l410 914h26l372 -867l22 -47q-46 4 -66 4q-50 0 -72 -4l-12 39l-59 155l-63 156l-158 4l-176 -4q-96 -246 -130 -350q-14 4 -44 4q-16 0 -50 -4zM268 406h158h131l-145 336z" />
<glyph unicode="B" horiz-adv-x="801" d="M123 2q1 28 4 82t4 84l2 446l-2 156l-6 127q32 -2 98 -2l101 2h57q75 0 111 -4q88 -16 122 -47q60 -50 60 -134q0 -88 -58 -148t-149 -82q11 0 17 -3q28 -6 47 -10.5t38 -10.5t31 -14q50 -29 74 -65q32 -49 32 -105q0 -138 -118 -221q-50 -34 -116 -42.5t-160 -8.5h-156 h-33zM238 450l4 -392q20 -1 58 -5t64 -4h3q96 0 155 57q62 62 62 148q0 56 -18.5 94t-63.5 68q-52 34 -188 34h-76zM238 500h61q103 0 160 26q100 48 100 160q0 44 -19.5 83t-55.5 57q-49 24 -148 24q-16 0 -47 -2t-47 -2q-2 -34 -2 -102v-132z" />
<glyph unicode="C" horiz-adv-x="874" d="M49 450q0 95 40.5 191.5t110.5 154.5q136 116 345 116q147 0 281 -60q-16 -40 -28 -100l-10 -2q-3 4 -6 7.5t-8 6.5q-102 98 -236 98q-116 0 -198 -56.5t-123 -152t-41 -209.5q0 -62 22 -164q22 -72 66 -124q46 -60 117 -93t149 -33q134 0 262 95q10 10 21 10l-12 -79 q-110 -74 -289 -74q-142 0 -247 57t-161 163q-55 104 -55 248z" />
<glyph unicode="D" horiz-adv-x="1020" d="M127 0l6 129l4 609l-4 159h33h262h62q106 0 180 -15.5t137 -68.5q72 -58 106.5 -143.5t34.5 -183.5q0 -128 -38 -218q-50 -104 -128 -168q-52 -46 -115 -67t-125 -26t-155 -5l-161 2q-34 0 -99 -4zM242 211l4 -151q24 -1 68 -5t73 -4q89 1 149 9q52 10 95 30 q56 27 89 62.5t58 93.5q46 90 46 221q0 52 -10 109.5t-33.5 108.5t-61.5 83q-62 51 -130.5 64.5t-176.5 13.5q-35 0 -85.5 -3t-76.5 -3q-8 -192 -8 -270v-359z" />
<glyph unicode="E" d="M114 2l9 164l2 448l-2 115l-7 168l142 -4h188q46 0 136 4q0 -6 -2 -18.5t-2 -20.5q0 -26 4 -39q-20 1 -54 4t-63 5l-131 4h-96l-6 -197v-57v-76h132l70 4q20 1 59 3t58 3q-6 -38 -6 -39q0 -2 6 -39q-74 8 -117 8l-72 2h-57h-73v-104v-164q0 -76 2 -114q118 0 235 6 q56 0 119 10q0 -52 2 -78l-90 2q-106 4 -162 4q-18 0 -57 -1q-38 -1 -58 -1q-16 0 -53 -1q-36 -1 -56 -1z" />
<glyph unicode="F" d="M114 2l9 164l2 448l-2 115l-7 168l142 -4h188q46 0 136 4q0 -6 -2 -18.5t-2 -20.5q0 -26 4 -39q-20 1 -54 4t-63 5l-131 4h-96l-6 -197v-57v-76h132l70 4q20 1 59 3t58 3q-6 -38 -6 -39q0 -2 6 -39q-74 8 -117 8l-72 2h-57h-73v-104l2 -338h-86h-34z" />
<glyph unicode="G" horiz-adv-x="1020" d="M64 442q0 148 66 254t182 160t264 54q90 0 164.5 -15t152.5 -49q3 -3 9 -6q6 -2 8 -4q-8 -23 -18 -56q-10 -32 -14 -47h-14q-54 63 -132 97t-162 34q-81 0 -155.5 -32t-128.5 -90q-96 -110 -96 -292q0 -88 28 -171.5t81 -141.5q103 -107 285 -107q124 0 208 44v141v71 q0 80 -4 120q49 -4 64 -4q44 0 58 8v-40l-5 -130v-156v-45q-174 -59 -356 -59q-141 0 -258 57q-111 48 -181 172q-46 87 -46 233z" />
<glyph unicode="H" horiz-adv-x="1020" d="M116 0q2 8 3 28l6 105l4 305v52v270l-6 137q11 0 33 -2t34 -2q22 0 60 4q0 -24 -2 -37l-6 -118l-6 -228l170 -4l374 4v278l-6 105q10 0 32 -2t34 -2q20 0 61 4q-1 -6 -2 -18.5t-2 -18.5l-10 -426l4 -294l6 -140q-12 1 -30.5 3.5t-28.5 2.5q-12 0 -35.5 -2.5t-34.5 -3.5 q2 8 2 28l8 136l2 290h-544l2 -284l6 -142l2 -28q-56 6 -60 6q-12 0 -35 -2.5t-35 -3.5z" />
<glyph unicode="I" horiz-adv-x="364" d="M116 0l13 282q3 20 3 63t1 63v110v96l-6 279q55 -6 59 -6q45 0 64 8l-12 -291q-4 -164 -4 -246v-40q2 -28 2 -40l12 -278q-42 4 -64 4t-68 -4z" />
<glyph unicode="J" horiz-adv-x="364" d="M-18 -146q98 4 130 69t32 173q4 172 4 256v154v92q-4 192 -11 289v10q20 -4 66 -4q40 0 61 4l-2 -15q-8 -76 -8 -178v-239l6 -351q0 -129 -71 -210t-197 -84z" />
<glyph unicode="K" horiz-adv-x="801" d="M119 0q0 22 2 35l8 231q0 30 1 90t1 92q0 30 -1 88t-1 86l-4 124l-2 118l-4 31q6 -2 16 -2q25 -4 39 -4q17 2 34 3q18 2 34 3q-2 -12 -2 -37l-6 -348q0 -4 1 -12t1 -10q0 -8 10 -9q7 5 17.5 13t18.5 16q39 35 54 51l66 63l254 273q16 -2 46 -2q9 0 28.5 1t29.5 1 l-295 -289l-111 -112q32 -38 116 -132t121 -135.5t81 -93.5l106 -125v-8q-11 1 -34 4q-24 2 -36 2t-36 -2.5t-37 -3.5q-81 100 -93 114l-176 212l-110 124q-1 0 -7 1q-5 1 -13 1q-2 -4 -2 -18v-68q2 -46 2 -69v-135l4 -129l2 -33q-32 2 -98 2z" />
<glyph unicode="L" d="M114 2l9 164v563q-1 86 -7 166h93h33l-8 -201q-6 -98 -6 -198v-79q2 -52 2 -77v-164v-57q2 -37 2 -57q120 0 237 6q24 0 125 10q-4 -25 -4 -39q0 -10 4 -39l-94 2q-106 4 -162 4q-18 0 -57 -1q-38 -1 -58 -1q-16 0 -53 -1q-36 -1 -56 -1z" />
<glyph unicode="M" horiz-adv-x="1165" d="M60 0v12l44 270l64 476q4 26 8 65t10 87h23l178 -347q96 -183 201 -358q32 58 56 100.5t46 85.5l172 317q12 22 51 90t62 112h16l63 -570q10 -84 23 -183t21 -157q-36 4 -58 4q-45 0 -65 -4l-41 477q-12 99 -24 195l-185 -338l-69 -136q-16 -30 -41 -82.5t-50 -105.5h-14 l-72 148q-31 66 -73.5 149t-89 171t-101.5 194l-57 -512l-6 -132v-28q-8 0 -25 1t-27 1q-26 0 -40 -2z" />
<glyph unicode="N" horiz-adv-x="1020" d="M123 0q8 116 10 172l9 305v439h22l645 -690l8 -9q4 47 4 143v420l-4 104l-2 11q37 -4 57 -4q8 0 33 4q-1 -4 -2 -14.5t-2 -16.5l-6 -129l-13 -311l-4 -293l4 -147h-18q-50 58 -80 92l-214 238l-365 388l-2 -122v-195v-105l2 -155l8 -125q-14 4 -45 4t-45 -4z" />
<glyph unicode="O" horiz-adv-x="1091" d="M58 446q0 214 147 346q141 128 335 128q152 0 258 -56q240 -128 240 -397q0 -144 -63 -255.5t-177 -171.5t-260 -60q-154 0 -268 65t-178 199q-12 31 -28 104q-6 50 -6 98zM184 428q0 -182 94 -288q102 -120 264 -120q90 0 165 42t124 113t66 161q13 56 13 118 q0 91 -17 160.5t-65 131.5q-48 61 -120.5 93.5t-152.5 32.5q-125 0 -219 -69q-80 -58 -116 -159t-36 -216z" />
<glyph unicode="P" horiz-adv-x="729" d="M116 0q2 10 3 33l12 253l-6 460l-6 149q25 -2 79 -2l160 2q88 0 149 -7.5t112 -39.5t69 -102q8 -30 8 -68q0 -82 -38 -142q-37 -54 -99 -84q-53 -28 -143 -42q-26 -4 -80 -4h-49q-31 2 -49 2v-96v-58l4 -228v-28q-38 4 -60 4q-11 0 -32 -1q-22 -1 -34 -1zM238 459 q18 -5 63 -5q23 0 67 5q108 11 158 67q22 23 36 66q14 44 14 80q0 74 -44 122q-32 38 -104 46q-38 6 -74 6q-44 0 -114 -4v-31l-2 -76v-276z" />
<glyph unicode="Q" horiz-adv-x="1091" d="M58 446q0 134 64 243t175 169t243 60q140 0 254 -53t179 -155t65 -243q0 -176 -96 -303q-92 -124 -248 -164q80 -66 109 -88l73 -54l111 -81q-83 -39 -103 -55q-4 8 -8 10q-130 134 -288 248q-20 0 -31 -4q-145 1 -259 55.5t-177 160.5t-63 254zM184 428q0 -184 94 -288 q102 -120 264 -120q90 0 165 42t124 113t66 161q13 56 13 118q0 91 -17 160.5t-65 131.5q-48 61 -120.5 93.5t-152.5 32.5q-123 0 -207 -60t-124 -161.5t-40 -222.5z" />
<glyph unicode="R" horiz-adv-x="801" d="M119 0q0 34 2.5 74t3.5 78l6 458l-8 254v33l103 -4l174 4q96 0 164 -19q68 -20 100 -84q26 -46 26 -100q0 -107 -77 -168.5t-191 -81.5l270 -342l64 -74l22 -28q-14 1 -39 3.5t-39 2.5q-12 0 -36 -2.5t-38 -3.5q-8 12 -34 48q-25 34 -45 62l-156 202l-105 122h-48v-104 v-58l4 -272q-38 4 -60 4t-63 -4zM236 484q10 0 30 -2h31q57 0 109 8q76 16 122 65t46 123t-44 116q-36 38 -100 50q-24 2 -82 2q-74 0 -108 -2z" />
<glyph unicode="S" d="M58 58q18 46 24 114h14q41 -66 90 -99.5t121 -33.5q79 0 131 55q52 56 52 134q0 108 -132 165q-29 14 -65.5 28.5t-65.5 28.5t-55 32q-92 62 -92 180q0 120 82 185t208 65q118 0 189 -62q-15 -32 -37 -108h-12q-20 54 -62.5 86t-99.5 32q-70 0 -118 -44q-48 -46 -48 -114 q0 -74 56 -120q22 -18 51 -33q29 -17 51 -23q19 -8 35.5 -14t24.5 -10q16 -7 32 -13.5t27 -13.5q63 -36 81 -57q56 -70 56 -140q0 -90 -43 -157t-118 -102t-165 -35q-54 0 -118 20t-94 54z" />
<glyph unicode="T" horiz-adv-x="729" d="M24 817q2 27 2 78q30 -1 90 -4t89 -4l172 -3l163 5l162 6q-4 -25 -4 -41q0 -12 4 -41q-24 4 -36 4l-140 13h-67h-33q-2 -10 -2 -32l-4 -136v-522l8 -132l2 -8q-10 1 -30 3.5t-32 2.5q-36 0 -67 -6q2 10 2 33l6 137l7 526v136q-26 -1 -82 -3q-54 -1 -82 -3z" />
<glyph unicode="U" horiz-adv-x="1020" d="M125 895q6 0 20.5 -1.5t28.5 -3t20 -1.5t17.5 1.5t22.5 2.5t18 2q-2 -10 -2 -33l-4 -88l-6 -278q0 -16 -2 -52v-53q0 -80 10 -135q18 -108 93 -161.5t187 -53.5q37 0 84 12t74 31q62 42 92 110q22 52 27 118t8 172q0 26 1 75q1 50 1 76q0 47 -4 141l-4 119q16 0 53 -4 q27 0 39 4q-1 -28 -5 -80.5t-5 -79.5l-13 -363q-4 -108 -22 -159q-26 -84 -74 -129q-102 -102 -278 -102q-132 0 -226 48q-22 10 -59 44q-56 50 -73 122t-17 172l6 146v142l-4 204z" />
<glyph unicode="V" horiz-adv-x="874" d="M33 895q49 -4 73 -4q20 0 62 4q8 -22 19.5 -54t27.5 -75l88 -230l162 -396h8q12 26 35 77q22 51 32 80l140 357l78 218l8 23q19 0 55 -4q27 0 39 4q-2 -8 -7 -17.5t-7 -15.5l-297 -694l-63 -168q-14 4 -44 4q-28 0 -42 -4l-114 289l-233 569z" />
<glyph unicode="W" horiz-adv-x="1310" d="M18 895q45 -4 72 -4q20 0 58 4q8 -24 18 -63.5t20 -77.5l78 -266l108 -346h11l162 478q9 22 37 113q30 89 46 149l3 13h84q4 -12 7 -20.5t5 -14.5l67 -221l164 -487l4 -10h11q40 122 49 149l152 493l30 111q30 -4 46 -4t44 4q-24 -59 -63 -170l-250 -725q-14 4 -43 4 q-28 0 -45 -4q-3 4 -5 14q-4 10 -6 14l-196 607l-37 96l-256 -731q-15 2 -41 2q-33 0 -49 -2q-30 106 -51 170z" />
<glyph unicode="X" horiz-adv-x="801" d="M51 0q102 146 158 228l145 218q-51 84 -85.5 142t-65.5 106l-121 190l-6 11q54 -4 80 -4q20 0 61 4q29 -57 65 -115l138 -240q24 39 78 122t85 133.5t56 99.5q33 -4 49 -4q15 0 47 4q-7 -13 -20 -29l-199 -278l-66 -98l304 -490q-40 6 -86 6q-30 0 -60 -6 q-92 182 -223 396q-123 -186 -237 -396q-16 6 -52 6q-8 0 -23.5 -2.5t-21.5 -3.5z" />
<glyph unicode="Y" horiz-adv-x="801" d="M35 895q49 -4 71 -4q49 0 74 4q94 -179 127 -237l107 -183q11 -21 14 -23q16 12 39 58q78 130 176 322l33 63q19 0 59 -4q29 0 43 4q-6 -10 -42 -60.5t-50 -72.5l-144 -232q-44 -67 -79 -145l4 -266l4 -119q-45 4 -69 4q-20 0 -58 -4q0 18 2 26l6 130l2 130v82z" />
<glyph unicode="Z" horiz-adv-x="801" d="M22 2v20l382 539q130 187 186 275h-150l-256 -10l-108 -9q4 29 4 41q0 24 -4 37q110 -4 166 -4h358l154 2l12 2v-19l-156 -202l-305 -436l-111 -168l4 -8h91h65l279 10l129 10q-6 -24 -6 -45q0 -12 4 -35h-33l-164 4l-305 2z" />
<glyph unicode="[" horiz-adv-x="436" d="M172 -125l8 137v883q46 -4 66 -4q24 0 70 2t69 2v-11v-26h-119q0 -20 -2 -30l-4 -105l-4 -495l6 -310v-32l115 2v-13v-27q-18 0 -56.5 2t-56.5 2q-20 0 -66 -4h-26v27z" />
<glyph unicode="\" d="M43 981h82l487 -981h-82z" />
<glyph unicode="]" horiz-adv-x="436" d="M53 -114h119q0 18 2 28l4 106l4 174v482l-6 150v32l-116 -2v39q78 -4 112 -4q12 0 34 1t34 1l26 2v-27l-6 -139v-881q-46 4 -70 4q-22 0 -67 -2q-46 -2 -70 -2v10v28z" />
<glyph unicode="^" horiz-adv-x="794" d="M68 360l286 533h86l287 -533h-92l-237 428l-240 -428h-90z" />
<glyph unicode="_" d="M49 -106h567v-64h-567v64z" />
<glyph unicode="`" horiz-adv-x="436" d="M28 891q10 27 54 27q10 -2 18 -8q11 -8 24.5 -22.5t25.5 -27.5l166 -164h-48l-204 130q-30 24 -34 28q-2 12 -2 37z" />
<glyph unicode="a" d="M60 146q0 44 20.5 84t56.5 59q50 28 166 45q87 14 115 30q12 6 20 15q4 12 4 43q0 72 -40 114t-113 42q-93 0 -145 -74q-10 -16 -11 -18h-14v73q105 74 211 74h3q102 0 159 -61q34 -34 41 -68t7 -94l-4 -156v-48q-2 -32 -2 -48q0 -58 10 -87.5t40 -29.5q22 0 30 4v-29 q-6 0 -8 -4q-9 -2 -17.5 -4.5t-12.5 -3.5q-30 -4 -44 -4q-82 4 -92 80l-12 -12q-82 -82 -192 -82q-72 0 -124 44q-52 46 -52 116zM168 164q0 -123 129 -123q57 0 105 49q22 24 24 26q7 5 10 15l6 195q-4 0 -12 -4l-39 -8q-80 -14 -117.5 -25t-71.5 -41t-34 -84z" />
<glyph unicode="b" horiz-adv-x="729" d="M86 0q1 4 2 13t2 13l2 120l4 489l-6 313v33q10 0 30 -1t32 -1q33 0 51 2q-2 -10 -2.5 -18.5t-2.5 -14.5l-4 -122l-4 -300v-30q90 132 228 132q66 0 118 -24q48 -26 82 -70q64 -84 64 -208q0 -88 -36 -167.5t-103.5 -127t-157.5 -47.5q-106 0 -176 82q-2 2 -5.5 6.5 t-5.5 5.5q-14 -10 -88 -78h-24zM188 268q0 -104 44 -168q22 -32 62 -53q38 -21 76 -21q100 0 149 92t49 204q0 106 -46 176q-20 36 -58 57t-79 21q-110 0 -164 -109q-33 -67 -33 -199z" />
<glyph unicode="c" d="M53 309q0 99 43.5 171t121.5 110t175 38q120 0 207 -52l-30 -86h-11q-23 32 -35 42q-22 24 -58 40t-70 16q-109 0 -169.5 -81t-60.5 -191q0 -120 62 -197q32 -40 80 -63t100 -23h2q91 0 178 81l8 -4l-6 -61q-90 -65 -201 -65q-220 0 -303 168q-33 70 -33 157z" />
<glyph unicode="d" horiz-adv-x="729" d="M121 534q81 96 207 97q132 0 204 -127v26v199l-2 217v35l10 -4q14 -2 44 -2q28 0 55 6q-1 -6 -2 -19.5t-2 -19.5l-4 -106l-3 -836l-14 2l-22 2q-42 0 -60 -4l2 125q-4 -3 -8 -11q-74 -130 -219 -130q-51 0 -113 26q-28 12 -80 64q-69 71 -69 225q0 145 76 235zM158 284 q0 -22 14 -100q12 -63 59 -107t109 -44q104 0 148 89q44 90 44 204q0 100 -42 176q-44 76 -134 76q-198 0 -198 -294z" />
<glyph unicode="e" d="M45 307q0 64 21.5 130t60.5 108q83 88 217 88q126 0 195 -71q69 -72 75 -196l-4 -50l-266 4l-186 -4q0 -127 59.5 -202t169.5 -75q48 0 98.5 22.5t84.5 57.5q6 6 18 8l-8 -65q-110 -78 -226 -78q-18 0 -92 14q-52 12 -97 45t-73 80q-47 74 -47 184zM160 366q28 0 86 -2 t86 -2q30 0 88 2q59 2 88 2q-4 224 -164 224q-86 0 -131 -66t-53 -158z" />
<glyph unicode="f" horiz-adv-x="364" d="M24 559v51h95l4 23q14 136 77.5 241t195.5 105q-2 -8 -3 -16.5t-2 -14.5q0 -11 -2 -35q-2 -25 -2 -37l-6 -6l-27 12q-19 8 -45 9q-53 0 -79.5 -36.5t-26.5 -92.5q0 -43 12 -129l2 -23h135q0 -4 -1 -7l-1 -3q-2 -8 -2 -24q0 -12 2 -19l-133 4q0 -25 -1 -79t-1 -80v-105 l6 -264v-33l-10 2q-14 2 -45 2q-40 0 -60 -4q1 6 2.5 18t1.5 17l4 94l5 430h-95z" />
<glyph unicode="g" d="M47 -94q0 120 137 143v11q-14 0 -47 14q-20 20 -26.5 36t-6.5 46q0 68 90 104q-126 52 -126 172q0 48 23 91.5t63 66.5q57 34 178 34l182 -8q64 0 94 4v-46l-143 12q90 -66 90 -160q0 -52 -37 -104q-20 -30 -68 -54q-38 -19 -76 -23.5t-100 -4.5q-52 0 -71 -12 q-23 -16 -23 -46q0 -38 41 -51q12 -4 25 -5q12 -2 28 -2q14 0 33 -1h84q106 0 154 -29q71 -40 71 -131q0 -60 -32 -110q-32 -51 -86 -81q-92 -46 -214 -46q-92 0 -164.5 45t-72.5 135zM144.5 -158q17.5 -32 45.5 -51q48 -29 126 -29q81 0 143.5 38t62.5 116q0 84 -50 108 q-48 25 -142 25q-98 -1 -146 -27q-57 -38 -57 -111q0 -37 17.5 -69zM166 434q0 -74 41 -122q34 -42 102 -42q70 0 109 50q34 44 34 108q0 164 -136 164q-70 0 -110 -43.5t-40 -114.5z" />
<glyph unicode="h" horiz-adv-x="729" d="M102 0q2 26 4 72t2 84q2 35 2 104q0 22 2 69v69v130v100q-2 66 -2 101q-4 127 -4 187l-2 65q34 -6 54 -6q33 0 45 2l12 4q-1 -24 -2 -70q-1 -45 -2 -69l-6 -264v-74q76 124 213 124q110 0 166 -65q31 -40 37.5 -79.5t6.5 -106.5l-4 -191l4 -126v-50v-10q-24 4 -56 4 q-35 0 -54 -4q0 20 2 56t2 56q2 50 6 144q0 16 2 45v43q0 100 -18 131q-44 88 -133 88h-2q-99 0 -143 -79q-28 -56 -29 -183v-215l4 -78v-8q-33 4 -53 4q-36 0 -54 -4z" />
<glyph unicode="i" horiz-adv-x="364" d="M123 846q0 28 19.5 48t47.5 20q27 0 46.5 -20.5t19.5 -47.5q0 -26 -20 -46t-46 -20q-28 0 -47.5 19.5t-19.5 46.5zM127 0q8 140 8 312q0 200 -6 298l-2 10q19 -4 63 -4q36 0 52 4q-8 -140 -8 -308q0 -152 6 -300l2 -12q-38 4 -58 4q-39 0 -57 -4z" />
<glyph unicode="j" horiz-adv-x="364" d="M0 -230q8 0 12 -2q56 0 100 74q24 72 25 203v383q0 130 -8 196l13 -4l30 -2h41l35 6q-1 -5 -2 -14q0 -10 -2 -14q-6 -96 -6 -282v-120v-153q0 -92 -14 -150.5t-64 -103.5q-68 -55 -152 -55zM123 846q0 28 19.5 48t47.5 20q27 0 46.5 -20.5t19.5 -47.5q0 -26 -20 -46 t-46 -20q-28 0 -47.5 19.5t-19.5 46.5z" />
<glyph unicode="k" d="M100 0v35l4 105l8 493l-8 311v37l12 -4h78q3 0 9.5 2t7.5 2q4 0 4 -6q-2 -12 -2 -37l-8 -230v-315q0 -28 10 -43q39 0 115 78l80 82l102 108l12 -2l29 -2q43 0 63 4v-8q-34 -29 -86 -72t-71 -59l-43 -37l-88 -82q26 -28 63 -71t84 -99l61 -65l60 -67l39 -50v-8 q-19 4 -63 4q-45 0 -70 -4q-40 54 -70 88l-43 49l-67 80l-66 74q-16 15 -24 27h-27q-2 -16 -2 -54v-124l6 -105v-35l-11 2l-28 2q-48 0 -70 -4z" />
<glyph unicode="l" horiz-adv-x="364" d="M123 0v39l10 303v510l-4 119l-2 10l17 -4h82q8 0 16 4v-37l-10 -288v-506l2 -138l2 -12l-36 2q-53 0 -77 -2z" />
<glyph unicode="m" horiz-adv-x="1091" d="M92 0q2 10 2 30l10 259v157l-6 144v30l8 -2q16 -2 46 -2q33 0 51 4q-3 -28 -3 -50q0 -24 -2 -60q76 118 200 118q67 0 118.5 -33t71.5 -95q77 126 215 126q88 0 142.5 -50t54.5 -138q0 -40 -4 -118l-5 -84v-113l5 -88v-35l-13 2l-27 2q-48 0 -72 -4q2 12 3 39l6 82l4 139 v98q-1 108 -23 150q-38 57 -112 57q-57 0 -98 -28.5t-58 -82.5q-6 -23 -10 -104v-160q0 -72 2 -106v-56l4 -28q-18 4 -53 4q-41 0 -59 -4q0 16 2 26l8 152v96v107q0 92 -33 133q-33 47 -107 47q-106 0 -143 -92q-21 -54 -21 -170v-71v-107l4 -95l3 -26l-13 2q-14 2 -42 2 q-37 0 -56 -4z" />
<glyph unicode="n" horiz-adv-x="729" d="M102 0q2 26 4 72t2 84q4 156 4 233q0 45 -4 127q-2 34 -2 104q22 -4 52 -4q35 0 51 4v-28l-4 -41v-35v-12q76 124 213 124q110 0 166 -65q31 -40 37.5 -79.5t6.5 -106.5l-4 -191l4 -126v-50v-10q-24 4 -56 4q-35 0 -54 -4q0 20 2 56t2 56q2 50 6 144q0 16 2 45v43 q0 100 -18 131q-44 88 -133 88h-2q-99 0 -143 -79q-28 -56 -29 -183v-215l4 -78v-8q-33 4 -53 4q-36 0 -54 -4z" />
<glyph unicode="o" horiz-adv-x="729" d="M45 316q0 142 94 229.5t238 87.5q140 -1 227 -101q78 -84 78 -220q0 -93 -47 -179q-89 -147 -281 -147q-68 0 -133 26q-56 25 -102 76q-43 48 -58.5 100t-15.5 128zM162 295q0 -110 50 -189q48 -78 152 -78q84 0 146 78q38 56 51 144q4 20 4 68q0 107 -44.5 189.5 t-143.5 82.5q-114 0 -164.5 -86t-50.5 -209z" />
<glyph unicode="p" horiz-adv-x="729" d="M86 -260q0 18 4 47l2 80l4 113v640l12 -2l25 -2q39 0 57 4v-124q0 2 6 8q10 16 19 32q44 54 88 76q45 23 113 23q80 0 140 -40.5t92 -109.5t32 -149q0 -148 -70 -242q-78 -102 -214 -102q-134 0 -206 124v-26v-80v-116l4 -162l-12 2q-26 2 -78 2q-6 0 -11.5 2t-6.5 2z M190 295q0 -56 19 -123q17 -64 71 -100q38 -28 105 -29q48 0 89 30q40 31 60 79q13 27 22 82.5t9 93.5q-1 108 -41 180q-22 36 -60 58t-81 22q-102 0 -147.5 -89.5t-45.5 -203.5z" />
<glyph unicode="q" horiz-adv-x="729" d="M47 318q-1 136 59 218q35 46 90 74.5t113 28.5q73 0 130 -35t89 -100q4 -4 4 -8v124q20 -4 60 -4l24 2l12 2v-640l9 -193q0 -7 1 -22.5t1 -24.5q-1 -4 -19 -4q-52 0 -78 -2l-12 -2l6 278l-4 80v26q-66 -124 -202 -124q-133 0 -208 94t-75 232zM162 330q0 -288 196 -289 q90 0 142 92q32 60 32 162q0 101 -26 170q-21 54 -64 88.5t-98 34.5q-96 0 -148 -88q-34 -60 -34 -170z" />
<glyph unicode="r" horiz-adv-x="436" d="M104 0v35l4 137l-4 438v10l29 -4q52 0 76 4l-6 -90v-30l2 -8l10 16q36 56 78.5 88t112.5 32q8 -4 14 -4l-6 -32v-31l-2 -27v-16l-10 -4l-6 4t-9 4q-18 12 -47 12q-54 0 -84 -32q-24 -28 -35 -54q-16 -47 -16 -151v-160l4 -127v-10q-17 4 -55 4q-16 0 -50 -4z" />
<glyph unicode="s" horiz-adv-x="510" d="M56 26q24 82 26 97h10q26 -41 67 -67t85 -26q50 0 89 33t39 83q0 58 -36 80t-115 44q-81 26 -105 50q-52 50 -52 116q0 92 60 143.5t152 51.5q72 0 140 -31q2 -1 4.5 -2t3.5 -2q-18 -43 -31 -92h-12q-12 34 -43.5 59t-67.5 25q-52 0 -85 -28t-33 -78q0 -54 32 -79 q30 -25 92 -41q94 -26 120 -42q65 -53 65 -126q0 -108 -107 -178q-46 -30 -135 -30q-93 0 -163 40z" />
<glyph unicode="t" horiz-adv-x="364" d="M22 555v19v36l86 -4q0 26 -2 74t-2 72l115 44q0 -22 -2 -32l-8 -158l139 2v-53l-139 4q-4 -11 -4 -29l-2 -286v-54q0 -72 20 -116t82 -44q12 0 29.5 4t29.5 7v-33q-52 -18 -110 -18q-8 0 -17 1t-19 3t-22 4q-30 6 -54 31t-34 57q-8 38 -8 104l8 230v110v29z" />
<glyph unicode="u" horiz-adv-x="729" d="M96 246l4 188l-4 129v47v10q24 -4 58 -4q37 0 55 4q-6 -48 -6 -96q-9 -156 -9 -248q0 -97 23 -139q39 -79 137 -79q64 0 102 38q43 36 56 104q6 42 6 122v212l-2 76v10q16 -4 54 -4q36 0 54 4q-8 -102 -8 -153q-2 -79 -2 -235q0 -23 2 -72v-72q0 -60 2 -88q-40 4 -50 4 q-35 0 -52 -4v26l2 78v12q-70 -122 -211 -122q-105 0 -165 66q-30 33 -38 76t-8 110z" />
<glyph unicode="v" d="M28 620l13 -2q16 -2 51 -2q31 0 45 2l15 2q2 -6 3.5 -11t6.5 -17l26 -84l80 -203l52 -129l20 -47l12 -10q12 21 16 33l74 188l111 278q12 -2 35 -2q28 0 43 4q-3 -11 -11 -26l-168 -371l-50 -127l-34 -86l-2 -10q-28 4 -38 4q-30 0 -46 -4q-4 14 -10 28l-84 214l-110 268 z" />
<glyph unicode="w" horiz-adv-x="1020" d="M22 620q20 -4 64 -4q40 0 58 4l38 -126l82 -236l52 -121l94 254l80 227q12 -2 34 -2q26 0 39 4l35 -122l37 -115l88 -237l6 -11l19 37l92 242l72 198l2 8l28 -4q38 0 54 4l-13 -30l-71 -152l-66 -152l-68 -174l-43 -112q-21 4 -31 4q-28 0 -40 -4l-10 30l-36 120l-78 220 l-40 101l-14 -29l-80 -204l-44 -124l-36 -114q-38 4 -40 4q-10 0 -34 -4l-45 140l-91 247l-90 225z" />
<glyph unicode="x" d="M39 0v8q9 10 19 25l75 90l141 182l-235 315l10 -2q17 -2 57 -2q45 0 66 4l66 -102l55 -78l45 -61l74 94l106 147q20 -4 45 -4q31 0 47 4q-10 -11 -27 -30t-35 -39t-34 -39l-82 -94l-64 -78l246 -332v-8q-22 4 -65 4q-41 0 -61 -4q-8 13 -24 36q-16 22 -44 66l-115 164 q-18 -26 -37.5 -52t-35.5 -50l-66 -92l-47 -72q-25 4 -37 4q-29 0 -43 -4z" />
<glyph unicode="y" d="M35 620l43 -4h32l50 2l10 -34l68 -174l110 -264l10 -9l14 33l46 98l51 136l80 216q16 -4 39 -4q30 0 47 4l-309 -684l-82 -204q-18 6 -39 6q-25 0 -49 -6l61 110l53 102l23 48l6 10l-17 43z" />
<glyph unicode="z" d="M28 0v18l105 128l250 329l63 90l-252 -10l-98 -6q2 18 2 57q-2 4 -2 14l168 -6l119 -4h113l102 6v-14l-4 -8l-404 -538q161 0 398 18q-4 -22 -4 -37q0 -14 4 -37h-39l-164 6q-41 2 -125 2q-37 0 -114 -4q-78 -4 -118 -4z" />
<glyph unicode="{" horiz-adv-x="436" d="M76 414q60 16 80 49.5t20 99.5v233q0 112 47.5 148.5t155.5 36.5q-62 -16 -85.5 -54t-23.5 -112v-231q0 -77 -21 -115.5t-85 -54.5q66 -18 86 -60t20 -124v-218q0 -72 25 -112t84 -52q-78 0 -120.5 16t-62.5 58t-20 123v213q0 72 -19 104q-19 34 -81 52z" />
<glyph unicode="|" horiz-adv-x="436" d="M178 0v981h80v-981h-80z" />
<glyph unicode="}" horiz-adv-x="436" d="M58 -152q108 22 108 162v220q0 82 20 123t86 59q-43 10 -66.5 32t-31.5 56t-8 84v231q0 73 -23 111.5t-85 54.5q71 0 114 -14t65.5 -54.5t22.5 -118.5v-231q0 -66 21 -100.5t79 -50.5q-62 -17 -81 -49.5t-19 -104.5v-213q0 -82 -19.5 -123.5t-62 -57.5t-120.5 -16z" />
<glyph unicode="~" horiz-adv-x="794" d="M68 272q37 68 79.5 110t106.5 42q32 0 68 -12t88 -35t82.5 -34t52.5 -11q40 0 78 35t59 77l45 -53q-75 -141 -185 -141q-40 0 -176 57q-84 33 -114 33q-47 0 -77 -31q-31 -31 -63 -88z" />
<glyph horiz-adv-x="1024" />
<glyph unicode="&#xa1;" horiz-adv-x="436" d="M169 546q0 16 5.5 29t16 23t24 16t27.5 6q15 0 29 -6t24.5 -16t16.5 -23t6 -29q0 -14 -6 -28t-16.5 -24t-24 -16t-29.5 -6q-15 0 -28.5 6t-23.5 16t-15.5 23.5t-5.5 28.5zM179 -210q0 7 1 19q1 13 3 29l47 552h27l47 -550q2 -18 3 -32t1 -24q0 -15 -4.5 -28.5t-13 -24.5 t-20.5 -18t-28 -7t-27 8t-19 20t-12.5 27t-4.5 29z" />
<glyph unicode="&#xa2;" horiz-adv-x="729" d="M53 309q0 74 25.5 133t69.5 100.5t106 63.5t134 22h16l78 267l46 -20l-73 -251q79 -10 145 -48l-30 -86h-11q-15 22 -27 36t-24 23.5t-28 16.5q-15 6 -38 14l-150 -516q30 -14 57 -22.5t59 -8.5q93 -1 180 81l8 -4l-6 -61q-91 -65 -201 -65q-63 0 -117 14l-72 -248 l-46 20l72 244q-39 18 -71 46t-54.5 66t-35 84t-12.5 99zM166 316q0 -72 20.5 -125.5t62.5 -95.5l144 493q-108 -1 -167 -81q-60 -79 -60 -191z" />
<glyph unicode="&#xa3;" horiz-adv-x="729" d="M36 69q142 91 142 255q0 49 -14 96h-120v62h103q-37 124 -37 183q0 65 23 112t62 77.5t87 45.5q50 14 100 14q26 0 52 -3t51 -11t49 -23t44.5 -39t37 -57t28.5 -78l-82 -12q-6 36 -22 66t-40.5 51t-55 32.5t-66.5 11.5q-38 0 -70.5 -13.5t-57 -36.5t-38 -54.5 t-13.5 -65.5q1 -70 41 -200h196v-62h-184q10 -25 13 -43.5t3 -29.5q0 -121 -146 -271q101 28 140 28q13 0 35.5 -3t49.5 -8t56 -10.5t54 -10t44 -7.5t27 -3q52 0 112 28l26 -73q-40 -17 -74 -25t-62 -8q-30 0 -65.5 9t-72 19.5t-72.5 19.5t-68 9q-98 1 -184 -51z" />
<glyph unicode="&#xa4;" horiz-adv-x="723" d="M69 208l87 86q-50 76 -50 151t50 151l-87 84l51 53l86 -86q72 51 152 51t154 -51l86 86l51 -53l-87 -84q50 -74 50 -151t-50 -151l87 -86l-51 -52l-86 87q-76 -51 -154 -51t-152 51l-86 -87zM178 445q0 -38 14 -70.5t38.5 -57.5t57 -39t70.5 -14q32 0 64 12t58 35.5 t42 57.5t16 76q0 36 -14 69t-39 57.5t-58 38.5t-69 14q-38 0 -71 -14t-57.5 -38.5t-38 -57t-13.5 -69.5z" />
<glyph unicode="&#xa5;" horiz-adv-x="729" d="M35 895q24 -2 42 -3q17 -1 29 -1q24 0 43 1t31 3q48 -90 79 -149.5t48 -87.5l107 -183q6 -10 9 -15.5t5 -7.5q9 7 17.5 21.5t21.5 36.5q40 66 82.5 145t93.5 177l33 63q10 0 24.5 -1t34.5 -3q26 0 43 4q-1 -1 -7.5 -10t-15.5 -22t-19 -28.5t-20 -30t-18 -26t-12 -16.5 l-144 -232l-26 -42l-24 -44h213v-59h-242v-87h242v-60h-240v-119l6 -119q-22 2 -39.5 3t-29.5 1q-10 0 -25 -1t-33 -3q0 20 2 26l6 130v82h-234v60h236v70l-10 17h-226v59h190z" />
<glyph unicode="&#xa6;" horiz-adv-x="337" d="M136 196h67v-469zM136 445v469h67v-469h-67z" />
<glyph unicode="&#xa7;" horiz-adv-x="723" d="M68 392q0 142 142 188q-82 75 -82 150q0 42 17 76t46.5 58t69 37t83.5 13q214 0 247 -190l-88 -8q-27 136 -149 136q-25 0 -50.5 -8t-46.5 -22.5t-35 -36t-14 -49.5q0 -16 6.5 -32.5t17 -32t23.5 -29.5t28 -25q3 -2 14.5 -9.5t29 -18.5t39.5 -24.5t45 -28t46.5 -29.5 t44 -29t36.5 -25t25 -17q38 -30 61 -70t23 -88q0 -35 -7 -59.5t-23.5 -44.5t-44 -39t-69.5 -43q101 -74 101 -174q0 -48 -20 -83.5t-53.5 -60t-76 -36.5t-86.5 -12q-222 0 -258 200l84 12q36 -146 174 -146q28 0 55 8t49 24t35.5 39t13.5 55q0 16 -6.5 32t-18.5 32t-27 31 t-32 29q-18 13 -57.5 39t-104.5 65q-60 36 -99.5 66t-63.5 59t-34 58t-10 63zM140 406q0 -28 9 -51t29 -44.5t52 -43.5t76 -48q40 -24 77 -46.5t69 -45.5q120 58 120 131q0 82 -184 196q-100 62 -136 94q-112 -60 -112 -142z" />
<glyph unicode="&#xa8;" horiz-adv-x="436" d="M48 762q0 14 5 26t14.5 21.5t22 15t26.5 5.5t25 -6t20 -15t14.5 -21.5t5.5 -25.5t-5.5 -25t-14.5 -21t-21 -14.5t-24 -5.5q-14 0 -26 5t-21.5 14t-15 21t-5.5 26zM254 762q0 14 5.5 26t15 21.5t21.5 15t26 5.5t25.5 -6t20.5 -15t14.5 -21.5t5.5 -25.5t-5.5 -25t-14.5 -21 t-21 -14.5t-25 -5.5q-14 0 -26 5t-21 14t-15 21t-6 26z" />
<glyph unicode="&#xa9;" horiz-adv-x="957" d="M18 452q0 60 17 120t48 114t75 98t99 72q111 58 223 58q60 0 118.5 -16t110 -45.5t94.5 -71t74 -93t49 -111t18 -125.5q0 -61 -16 -119t-45.5 -109.5t-71 -94.5t-93 -74t-111.5 -49q-61 -17 -127 -17q-58 0 -114.5 15.5t-108 43.5t-95.5 69t-76 92.5t-50 112.5 q-18 62 -18 130zM66 452q0 -55 14 -107.5t40 -98.5t63.5 -84.5t83.5 -66t100 -43.5q53 -16 113 -16q87 0 162.5 32.5t132 89t89 132t32.5 162.5q0 57 -15 109.5t-43 99t-66 84t-84 65t-98 42.5q-54 14 -110 14q-58 0 -110.5 -14.5t-99 -41.5t-84 -65t-64.5 -84t-42 -99 q-14 -52 -14 -110zM240 450q0 54 20 101t56 81t86 53t111 19q81 0 155 -33q-4 -12 -8 -25.5t-7 -29.5l-5 -2q-30 30 -64 46t-74 16q-48 0 -85 -18t-63 -48.5t-39 -71.5q-13 -42 -13 -88v-4q0 -20 4 -45t13 -50t24 -49t36.5 -43t51 -30t66.5 -11q73 0 145 52q4 6 10 6l-6 -44 q-61 -40 -159 -40q-60 0 -107 18t-80 51t-50.5 81t-17.5 108z" />
<glyph unicode="&#xaa;" horiz-adv-x="490" d="M52 576q0 15 3.5 30.5t10.5 28.5t17 24t23 18q8 4 24 8.5t36 9t41 9t40.5 9.5t34 9t20.5 8q6 3 9.5 5.5t5.5 6.5t2.5 11t0.5 17q0 52 -28 80.5t-80 28.5q-16 0 -33 -4t-32 -12t-27 -20.5t-17 -28.5h-9v52q72 52 146 52q27 0 51.5 -7.5t43 -20t31 -28.5t16.5 -34 q2 -10 4 -24.5t2 -32.5v-119q-1 -5 -1.5 -14t-1.5 -19.5t-1 -19.5v-14q0 -41 7 -61.5t27 -20.5q16 0 22 3v-20l-27 -8q-20 -4 -30 -4q-59 2 -65 56l-8 -8q-58 -58 -135 -58q-25 0 -47 8t-39 23t-27 35t-10 46zM128 590q0 -86 90 -87q11 0 26 5t29.5 13.5t25.5 20t16 24.5 l5 136q-4 0 -9 -2l-27 -6q-35 -7 -64 -13.5t-49.5 -17.5t-31.5 -28t-11 -45z" />
<glyph unicode="&#xab;" horiz-adv-x="723" d="M104 319l192 274h58l-156 -274l154 -273h-56zM354 319l186 274h61l-158 -274l158 -273h-61z" />
<glyph unicode="&#xac;" horiz-adv-x="759" d="M88 547v75h582v-352h-76v277h-506z" />
<glyph unicode="&#xad;" horiz-adv-x="433" d="M57 280v83h319v-83h-319z" />
<glyph unicode="&#xae;" horiz-adv-x="957" d="M18 452q0 60 17 120t48 114t75 98t99 72q111 58 223 58q60 0 118.5 -16t110 -45.5t94.5 -71t74 -93t49 -111t18 -125.5q0 -61 -16 -119t-45.5 -109.5t-71 -94.5t-93 -74t-111.5 -49q-61 -17 -127 -17q-58 0 -114.5 15.5t-108 43.5t-95.5 69t-76 92.5t-50 112.5 q-18 62 -18 130zM66 452q0 -55 14 -107.5t40 -98.5t63.5 -84.5t83.5 -66t100 -43.5q53 -16 113 -16q87 0 162.5 32.5t132 89t89 132t32.5 162.5q0 57 -15 109.5t-43 99t-66 84t-84 65t-98 42.5q-54 14 -110 14q-58 0 -110.5 -14.5t-99 -41.5t-84 -65t-64.5 -84t-42 -99 q-14 -52 -14 -110zM342 202q0 18 1 39.5t2 42.5v387l-1 17h156q31 0 58.5 -4.5t48.5 -17t33 -33.5t12 -55q0 -30 -11 -52t-31 -39t-46 -28q-28 -11 -58 -16l192 -243q-2 1 -8 2t-12 1.5t-11.5 0.5h-8.5h-8.5t-11.5 -1t-12 -1h-8q-2 3 -7 10t-12 16l-13 18q-6 10 -12 16 l-138 178l-30 -3v-235q-8 1 -16 1.5t-14 0.5t-14 -1t-20 -1zM406 464h6h10t10 -0.5t6 -0.5q33 0 61 6.5t47.5 19.5t31 33t11.5 48q0 50 -31 70q-32 21 -92 21q-20 0 -34 -1h-24z" />
<glyph unicode="&#xaf;" horiz-adv-x="718" d="M-4 994v50h726v-50h-726z" />
<glyph unicode="&#xb0;" horiz-adv-x="520" d="M97 754q0 32 12.5 62t34.5 51.5t51 34t62 12.5q32 0 61.5 -13t51.5 -34.5t35 -51t13 -61.5t-13 -61t-35 -51t-51.5 -35t-61.5 -13t-61.5 13t-51.5 35t-34.5 51t-12.5 61zM134 756q0 -26 10 -48.5t26.5 -39.5t39 -27t47.5 -10q26 0 48.5 9.5t39 26.5t26 39.5t9.5 47.5 q0 24 -9.5 47t-26 40t-39 27t-47.5 10q-26 0 -48 -10t-39 -26t-27 -38t-10 -48z" />
<glyph unicode="&#xb1;" horiz-adv-x="794" d="M72 0v82h641v-82h-641zM72 462v82h279v279h83v-279h279v-82h-279v-281h-83v281h-279z" />
<glyph unicode="&#xb2;" horiz-adv-x="425" d="M62 446v123q0 13 7 23t15 12l181 112q10 4 15.5 15t5.5 23v71q0 10 -1 17.5t-5 12t-12 7t-22 2.5h-90q-10 0 -18 -11t-8 -26v-101h-68v107q0 10 5.5 21t14 20.5t18.5 15.5t18 6h174q12 0 23 -4.5t19.5 -13t13.5 -19.5t5 -23v-74q0 -14 -3.5 -23t-10.5 -16t-15 -12 t-17 -10l-159 -99q-6 -2 -9.5 -4t-5.5 -6.5t-3 -12.5v-21v-80h223v-32h-291z" />
<glyph unicode="&#xb3;" horiz-adv-x="425" d="M67 510v107h67v-101q0 -20 9 -28t17 -8h92q12 0 20 2t12 6.5t5 12t1 17.5v106q0 8 -2 15t-5 12t-7 8t-6 3h-113v41h99q12 0 19 1.5t10 4.5t4 8t1 11v94q0 11 -1 18.5t-5 12.5t-12 7t-20 2h-92q-10 0 -18 -9t-8 -26v-77h-67v83q0 10 5.5 21t14 20.5t18.5 15.5q11 6 19 6 h172q12 0 23.5 -4.5t20 -13t13.5 -19.5t5 -23v-104q0 -16 -6 -26t-12.5 -15.5t-11.5 -7.5l-6 -3q24 -15 28 -21q8 -21 8 -51v-102q0 -12 -5 -23t-13.5 -19t-20 -13t-23.5 -5h-172q-8 0 -18 6t-19 15t-14.5 20t-5.5 23z" />
<glyph unicode="&#xb4;" horiz-adv-x="436" d="M28 696l166 164q9 9 17.5 18.5t16.5 17.5t16.5 14t17.5 8q44 0 54 -27q0 -8 0.5 -13.5t0.5 -9.5t-1.5 -8t-5.5 -8.5t-11 -11t-19 -14.5l-204 -130h-48z" />
<glyph unicode="&#xb5;" horiz-adv-x="749" d="M118 -258v900h80v-270q0 -174 22 -218q22 -47 61 -72.5t89 -25.5q27 0 51.5 7.5t45.5 21t37 33.5t26 43q20 45 20 209v272h80v-642h-70v118q-62 -100 -106 -118q-44 -16 -79 -16q-18 0 -36.5 3t-36.5 10q-36 12 -104 101v-356h-80z" />
<glyph unicode="&#xb6;" horiz-adv-x="698" d="M17 647q0 32 6.5 63.5t20.5 59.5t36 52t53 41t73 26t95 9h385v-77h-90v-1079h-77v1079h-173v-1079h-73v662q-57 0 -104 17t-81 49t-52.5 77t-18.5 100z" />
<glyph unicode="&#xb7;" horiz-adv-x="361" d="M106 441q0 16 6 29t16 23t23 15.5t29 5.5q15 0 28.5 -5.5t24 -15.5t17 -23t6.5 -29q0 -14 -6.5 -27.5t-17 -24t-24.5 -16.5t-28 -6q-15 0 -28.5 5.5t-23.5 16t-16 24t-6 28.5z" />
<glyph unicode="&#xb8;" horiz-adv-x="436" d="M90 -245l4 44l54 -1h9q25 0 44 5t31 13t18.5 20t6.5 25q0 28 -25.5 42.5t-69.5 14.5l25 82h51l-20 -67q26 0 47.5 -6.5t36 -17.5t22.5 -25t8 -30t-9 -34t-28.5 -34t-52 -26t-78.5 -10q-21 0 -39.5 1t-34.5 4z" />
<glyph unicode="&#xb9;" horiz-adv-x="425" d="M145 790v24q17 4 33 11t32 17q10 6 17 15t11 17.5t6 15t4 6.5h32v-450h-68v344h-67z" />
<glyph unicode="&#xba;" horiz-adv-x="490" d="M20 694q0 50 18 91t49 70.5t74 46t93 16.5q44 0 83 -16t68.5 -45t47 -70.5t17.5 -93.5v-3q0 -52 -17 -94t-48 -72t-73 -47t-94 -17q-42 0 -81 14t-69.5 43t-49 73t-18.5 104zM102 679q0 -38 9 -71.5t26 -59.5t44 -41.5t65 -15.5q28 0 53 12.5t45 37.5t31.5 63.5 t11.5 90.5q0 36 -7.5 70.5t-23.5 61.5t-41.5 43.5t-60.5 16.5q-41 0 -69.5 -16.5t-47 -45.5t-27 -66.5t-8.5 -79.5z" />
<glyph unicode="&#xbb;" horiz-adv-x="723" d="M117 46l159 273l-159 274h59l188 -274l-188 -273h-59zM364 46l157 274l-157 273h58l192 -274l-192 -273h-58z" />
<glyph unicode="&#xbc;" horiz-adv-x="1050" d="M86 790v24q17 4 32.5 11t32.5 17q10 6 16.5 15t10.5 17.5t6.5 15t3.5 6.5h32v-450h-67v344h-67zM131 -36l676 950h61l-676 -950h-61zM650 93v65l187 273h86v-299h41v-39h-41v-113h-67v113h-206zM682 132h174v260z" />
<glyph unicode="&#xbd;" horiz-adv-x="1050" d="M86 790v24q17 4 32.5 11t32.5 17q10 6 16.5 15t10.5 17.5t6.5 15t3.5 6.5h32v-450h-67v344h-67zM131 -36l676 950h61l-676 -950h-61zM688 -20v124q0 13 7 22.5t15 12.5l182 111q10 4 15 15t5 23v72q0 10 -1 17t-5 12t-12 7t-21 2h-91q-10 0 -18 -10t-8 -26v-102h-68v108 q0 10 6 21t14 20t18 15.5t19 6.5h173q12 0 23 -4.5t20 -13t14 -20t5 -23.5v-74q0 -14 -4 -23t-10.5 -15.5t-15.5 -11.5q-8 -4 -16 -10l-160 -99q-6 -2 -9 -4.5t-5 -6.5t-3 -12t-1 -22v-79h224v-33h-292z" />
<glyph unicode="&#xbe;" horiz-adv-x="1050" d="M67 510v107h67v-101q0 -20 9 -28t17 -8h92q12 0 20 2t12 6.5t5 12t1 17.5v106q0 8 -2 15t-5 12t-7 8t-6 3h-113v41h99q12 0 19 1.5t10 4.5t4 8t1 11v94q0 11 -1 18.5t-5 12.5t-12 7t-20 2h-92q-10 0 -18 -9t-8 -26v-77h-67v83q0 10 5.5 21t14 20.5t18.5 15.5q11 6 19 6 h172q12 0 23.5 -4.5t20 -13t13.5 -19.5t5 -23v-104q0 -16 -6 -26t-12.5 -15.5t-11.5 -7.5l-6 -3q24 -15 28 -21q8 -21 8 -51v-102q0 -12 -5 -23t-13.5 -19t-20 -13t-23.5 -5h-172q-8 0 -18 6t-19 15t-14.5 20t-5.5 23zM131 -36l676 950h61l-676 -950h-61zM650 93v65l187 273 h86v-299h41v-39h-41v-113h-67v113h-206zM682 132h174v260z" />
<glyph unicode="&#xbf;" horiz-adv-x="674" d="M40 -216q0 36 4 67t14 58t26 52q14 25 38 51q88 94 220 94q16 0 27 -1t17 -1v252h95v-290q-45 14 -90 15q-50 0 -98.5 -17.5t-85.5 -55t-60 -95t-23 -135.5q0 -45 16.5 -86.5t45 -74t66.5 -52t83 -19.5h5q52 2 79 18t33 44q0 5 -5 12.5t-12 14.5t-14 15t-11 13 q-8 12 -9 37q0 16 6.5 28t17.5 21t26 14t30 5t28 -8t22 -20.5t14 -28t5 -31.5q0 -29 -18 -60t-48 -56.5t-68 -41.5t-78 -16q-36 0 -72 10t-69 28t-62 43t-50 56t-33 67t-12 74zM336 538q0 21 8.5 38.5t23 31t33.5 21t39 7.5q19 0 35.5 -9t29.5 -23t20 -32t7 -36t-7.5 -36 t-20 -32t-29.5 -23t-37 -9t-39 8t-33 22t-22 32q-8 20 -8 40z" />
<glyph unicode="&#xc0;" horiz-adv-x="874" d="M20 0l410 914h26l372 -867l22 -47q-46 4 -66 4q-50 0 -72 -4l-12 39l-59 155l-63 156l-158 4l-176 -4q-96 -246 -130 -350q-14 4 -44 4q-16 0 -50 -4zM235 1167q10 27 54 27q10 -2 18 -8q11 -8 24.5 -22.5t25.5 -27.5l166 -164h-48l-204 130q-30 24 -34 28q-2 12 -2 37z M268 406h158h131l-145 336z" />
<glyph unicode="&#xc1;" horiz-adv-x="874" d="M20 0l410 914h26l372 -867l22 -47q-46 4 -66 4q-50 0 -72 -4l-12 39l-59 155l-63 156l-158 4l-176 -4q-96 -246 -130 -350q-14 4 -44 4q-16 0 -50 -4zM268 406h158h131l-145 336zM332 972l166 164q9 9 17.5 18.5t16.5 17.5t16.5 14t17.5 8q44 0 54 -27q0 -8 0.5 -13.5 t0.5 -9.5t-1.5 -8t-5.5 -8.5t-11 -11t-19 -14.5l-204 -130h-48z" />
<glyph unicode="&#xc2;" horiz-adv-x="874" d="M20 0l410 914h26l372 -867l22 -47q-46 4 -66 4q-50 0 -72 -4l-12 39l-59 155l-63 156l-158 4l-176 -4q-96 -246 -130 -350q-14 4 -44 4q-16 0 -50 -4zM229 972l152 196h107l157 -196h-67l-140 135l-140 -135h-69zM268 406h158h131l-145 336z" />
<glyph unicode="&#xc3;" horiz-adv-x="874" d="M20 0l410 914h26l372 -867l22 -47q-46 4 -66 4q-50 0 -72 -4l-12 39l-59 155l-63 156l-158 4l-176 -4q-96 -246 -130 -350q-14 4 -44 4q-16 0 -50 -4zM241 972q2 26 12 50t25 41t34.5 27.5t41.5 10.5q10 0 24.5 -4.5t32 -11.5t36 -15.5t34.5 -15.5t29 -11.5t21 -4.5 q40 0 60 54h42q0 -24 -8 -46.5t-23 -40.5t-35 -29q-20 -12 -42 -12q-10 0 -24.5 5t-32 13t-36.5 17t-35 17t-29 13t-20 5q-43 0 -63 -62h-44zM268 406h158h131l-145 336z" />
<glyph unicode="&#xc4;" horiz-adv-x="874" d="M20 0l410 914h26l372 -867l22 -47q-46 4 -66 4q-50 0 -72 -4l-12 39l-59 155l-63 156l-158 4l-176 -4q-96 -246 -130 -350q-14 4 -44 4q-16 0 -50 -4zM268 406h158h131l-145 336zM268 1038q0 14 5 26t14.5 21.5t22 15t26.5 5.5t25 -6t20 -15t14.5 -21.5t5.5 -25.5 t-5.5 -25t-14.5 -21t-21 -14.5t-24 -5.5q-14 0 -26 5t-21.5 14t-15 21t-5.5 26zM474 1038q0 14 5.5 26t15 21.5t21.5 15t26 5.5t25.5 -6t20.5 -15t14.5 -21.5t5.5 -25.5t-5.5 -25t-14.5 -21t-21 -14.5t-25 -5.5q-14 0 -26 5t-21 14t-15 21t-6 26z" />
<glyph unicode="&#xc5;" horiz-adv-x="874" d="M20 0l410 914h26l372 -867l22 -47q-46 4 -66 4q-50 0 -72 -4l-12 39l-59 155l-63 156l-158 4l-176 -4q-96 -246 -130 -350q-14 4 -44 4q-16 0 -50 -4zM268 406h158h131l-145 336zM333 1001q0 25 9.5 44.5t25 33.5t35 21t37.5 7q23 0 42.5 -7.5t34 -21.5t23 -33.5 t8.5 -43.5q0 -26 -10 -46t-25 -33.5t-34 -21t-39 -7.5t-39 7.5t-34 21.5t-24.5 33.5t-9.5 45.5zM385 999q0 -10 3.5 -20t10.5 -18t17 -14q10 -5 24 -5q12 0 22 4.5t17.5 12.5t12 18t4.5 22q0 10 -4 20.5t-11 19t-17 13.5q-12 5 -24 5q-14 0 -24 -5t-17 -14t-10.5 -19 t-3.5 -20z" />
<glyph unicode="&#xc6;" horiz-adv-x="1096" d="M-15 0l515 895h391q14 0 33 0.5t39.5 0.5t42.5 0.5t42 1.5q0 -3 -0.5 -8t-1 -10.5t-1.5 -11.5t-1 -10q0 -24 4 -39q-9 0 -24.5 1t-38 2.5t-53.5 3.5t-71 2h-157v-326h157l157 10q-6 -38 -6 -39q0 -2 6 -39q-18 2 -40 3.5t-43 3t-39.5 1.5h-29.5h-168v-266q0 -38 1 -66 t1 -48h22h33.5h38.5h38h32h22q14 0 36.5 2t46.5 4t47 5t39 5q0 -26 0.5 -47t1.5 -35q-39 0 -63.5 1t-40 2t-25.5 1h-20h-142q-28 0 -55.5 -1t-52.5 -2t-45.5 -3t-34.5 -2l12 174v184h-338q-64 -124 -107 -211t-66 -139q-17 4 -45 4q-8 0 -20 -1t-29 -3zM284 406h307v323 q-1 8 -2 33.5t-3 69.5h-70z" />
<glyph unicode="&#xc7;" horiz-adv-x="874" d="M49 450q0 95 40.5 191.5t110.5 154.5q136 116 345 116q147 0 281 -60q-16 -40 -28 -100l-10 -2q-3 4 -6 7.5t-8 6.5q-102 98 -236 98q-116 0 -198 -56.5t-123 -152t-41 -209.5q0 -62 22 -164q22 -72 66 -124q46 -60 117 -93t149 -33q134 0 262 95q10 10 21 10l-12 -79 q-110 -74 -289 -74q-142 0 -247 57t-161 163q-55 104 -55 248zM336 -245l4 44l54 -1h9q25 0 44 5t31 13t18.5 20t6.5 25q0 28 -25.5 42.5t-69.5 14.5l25 82h51l-20 -67q26 0 47.5 -6.5t36 -17.5t22.5 -25t8 -30t-9 -34t-28.5 -34t-52 -26t-78.5 -10q-21 0 -39.5 1t-34.5 4z " />
<glyph unicode="&#xc8;" d="M114 2l9 164l2 448l-2 115l-7 168l142 -4h188q46 0 136 4q0 -6 -2 -18.5t-2 -20.5q0 -26 4 -39q-20 1 -54 4t-63 5l-131 4h-96l-6 -197v-57v-76h132l70 4q20 1 59 3t58 3q-6 -38 -6 -39q0 -2 6 -39q-74 8 -117 8l-72 2h-57h-73v-104v-164q0 -76 2 -114q118 0 235 6 q56 0 119 10q0 -52 2 -78l-90 2q-106 4 -162 4q-18 0 -57 -1q-38 -1 -58 -1q-16 0 -53 -1q-36 -1 -56 -1zM184 1167q10 27 54 27q10 -2 18 -8q11 -8 24.5 -22.5t25.5 -27.5l166 -164h-48l-204 130q-30 24 -34 28q-2 12 -2 37z" />
<glyph unicode="&#xc9;" d="M114 2l9 164l2 448l-2 115l-7 168l142 -4h188q46 0 136 4q0 -6 -2 -18.5t-2 -20.5q0 -26 4 -39q-20 1 -54 4t-63 5l-131 4h-96l-6 -197v-57v-76h132l70 4q20 1 59 3t58 3q-6 -38 -6 -39q0 -2 6 -39q-74 8 -117 8l-72 2h-57h-73v-104v-164q0 -76 2 -114q118 0 235 6 q56 0 119 10q0 -52 2 -78l-90 2q-106 4 -162 4q-18 0 -57 -1q-38 -1 -58 -1q-16 0 -53 -1q-36 -1 -56 -1zM184 972l166 164q9 9 17.5 18.5t16.5 17.5t16.5 14t17.5 8q44 0 54 -27q0 -8 0.5 -13.5t0.5 -9.5t-1.5 -8t-5.5 -8.5t-11 -11t-19 -14.5l-204 -130h-48z" />
<glyph unicode="&#xca;" d="M114 2l9 164l2 448l-2 115l-7 168l142 -4h188q46 0 136 4q0 -6 -2 -18.5t-2 -20.5q0 -26 4 -39q-20 1 -54 4t-63 5l-131 4h-96l-6 -197v-57v-76h132l70 4q20 1 59 3t58 3q-6 -38 -6 -39q0 -2 6 -39q-74 8 -117 8l-72 2h-57h-73v-104v-164q0 -76 2 -114q118 0 235 6 q56 0 119 10q0 -52 2 -78l-90 2q-106 4 -162 4q-18 0 -57 -1q-38 -1 -58 -1q-16 0 -53 -1q-36 -1 -56 -1zM130 972l152 196h107l157 -196h-67l-140 135l-140 -135h-69z" />
<glyph unicode="&#xcb;" d="M114 2l9 164l2 448l-2 115l-7 168l142 -4h188q46 0 136 4q0 -6 -2 -18.5t-2 -20.5q0 -26 4 -39q-20 1 -54 4t-63 5l-131 4h-96l-6 -197v-57v-76h132l70 4q20 1 59 3t58 3q-6 -38 -6 -39q0 -2 6 -39q-74 8 -117 8l-72 2h-57h-73v-104v-164q0 -76 2 -114q118 0 235 6 q56 0 119 10q0 -52 2 -78l-90 2q-106 4 -162 4q-18 0 -57 -1q-38 -1 -58 -1q-16 0 -53 -1q-36 -1 -56 -1zM178 1038q0 14 5 26t14.5 21.5t22 15t26.5 5.5t25 -6t20 -15t14.5 -21.5t5.5 -25.5t-5.5 -25t-14.5 -21t-21 -14.5t-24 -5.5q-14 0 -26 5t-21.5 14t-15 21t-5.5 26z M384 1038q0 14 5.5 26t15 21.5t21.5 15t26 5.5t25.5 -6t20.5 -15t14.5 -21.5t5.5 -25.5t-5.5 -25t-14.5 -21t-21 -14.5t-25 -5.5q-14 0 -26 5t-21 14t-15 21t-6 26z" />
<glyph unicode="&#xcc;" horiz-adv-x="364" d="M13 1167q10 27 54 27q10 -2 18 -8q11 -8 24.5 -22.5t25.5 -27.5l166 -164h-48l-204 130q-30 24 -34 28q-2 12 -2 37zM116 0l13 282q3 20 3 63t1 63v110v96l-6 279q55 -6 59 -6q45 0 64 8l-12 -291q-4 -164 -4 -246v-40q2 -28 2 -40l12 -278q-42 4 -64 4t-68 -4z" />
<glyph unicode="&#xcd;" horiz-adv-x="364" d="M69 972l166 164q9 9 17.5 18.5t16.5 17.5t16.5 14t17.5 8q44 0 54 -27q0 -8 0.5 -13.5t0.5 -9.5t-1.5 -8t-5.5 -8.5t-11 -11t-19 -14.5l-204 -130h-48zM116 0l13 282q3 20 3 63t1 63v110v96l-6 279q55 -6 59 -6q45 0 64 8l-12 -291q-4 -164 -4 -246v-40q2 -28 2 -40 l12 -278q-42 4 -64 4t-68 -4z" />
<glyph unicode="&#xce;" horiz-adv-x="364" d="M-25 972l152 196h107l157 -196h-67l-140 135l-140 -135h-69zM116 0l13 282q3 20 3 63t1 63v110v96l-6 279q55 -6 59 -6q45 0 64 8l-12 -291q-4 -164 -4 -246v-40q2 -28 2 -40l12 -278q-42 4 -64 4t-68 -4z" />
<glyph unicode="&#xcf;" horiz-adv-x="364" d="M13 1038q0 14 5 26t14.5 21.5t22 15t26.5 5.5t25 -6t20 -15t14.5 -21.5t5.5 -25.5t-5.5 -25t-14.5 -21t-21 -14.5t-24 -5.5q-14 0 -26 5t-21.5 14t-15 21t-5.5 26zM116 0l13 282q3 20 3 63t1 63v110v96l-6 279q55 -6 59 -6q45 0 64 8l-12 -291q-4 -164 -4 -246v-40 q2 -28 2 -40l12 -278q-42 4 -64 4t-68 -4zM219 1038q0 14 5.5 26t15 21.5t21.5 15t26 5.5t25.5 -6t20.5 -15t14.5 -21.5t5.5 -25.5t-5.5 -25t-14.5 -21t-21 -14.5t-25 -5.5q-14 0 -26 5t-21 14t-15 21t-6 26z" />
<glyph unicode="&#xd0;" horiz-adv-x="1020" d="M16 422v54h119v421h355q53 0 97 -3.5t82 -12.5t71.5 -25t66.5 -43q72 -59 106.5 -142.5t34.5 -182.5q0 -73 -12.5 -131t-35 -104.5t-52.5 -83.5t-66 -69q-38 -32 -77.5 -51t-82 -30t-89 -14t-96.5 -3h-25l-186 2q-17 0 -41.5 -1t-57.5 -3l6 181v241h-117zM242 181l6 -120 q14 0 32 -2t38 -3.5t38 -3t31 -1.5q88 0 150.5 10.5t107.5 33.5t76 60t57 91q22 47 34 100.5t12 120.5q0 38 -6 81.5t-18 84.5t-32 76t-49 59q-32 26 -62.5 41t-65.5 23t-76 11t-95 3q-19 0 -43.5 -1t-48.5 -2t-45 -2t-33 -1q-4 -97 -6 -164q-2 -66 -2 -106v-94h253v-54 h-253v-241z" />
<glyph unicode="&#xd1;" horiz-adv-x="1020" d="M123 0q8 116 10 172l9 305v439h22l645 -690l8 -9q4 47 4 143v420l-4 104l-2 11q37 -4 57 -4q8 0 33 4q-1 -4 -2 -14.5t-2 -16.5l-6 -129l-13 -311l-4 -293l4 -147h-18q-50 58 -80 92l-214 238l-365 388l-2 -122v-195v-105l2 -155l8 -125q-14 4 -45 4t-45 -4zM314 972 q2 26 12 50t25 41t34.5 27.5t41.5 10.5q10 0 24.5 -4.5t32 -11.5t36 -15.5t34.5 -15.5t29 -11.5t21 -4.5q40 0 60 54h42q0 -24 -8 -46.5t-23 -40.5t-35 -29q-20 -12 -42 -12q-10 0 -24.5 5t-32 13t-36.5 17t-35 17t-29 13t-20 5q-43 0 -63 -62h-44z" />
<glyph unicode="&#xd2;" horiz-adv-x="1091" d="M58 446q0 214 147 346q141 128 335 128q152 0 258 -56q240 -128 240 -397q0 -144 -63 -255.5t-177 -171.5t-260 -60q-154 0 -268 65t-178 199q-12 31 -28 104q-6 50 -6 98zM184 428q0 -182 94 -288q102 -120 264 -120q90 0 165 42t124 113t66 161q13 56 13 118 q0 91 -17 160.5t-65 131.5q-48 61 -120.5 93.5t-152.5 32.5q-125 0 -219 -69q-80 -58 -116 -159t-36 -216zM402 1167q10 27 54 27q10 -2 18 -8q11 -8 24.5 -22.5t25.5 -27.5l166 -164h-48l-204 130q-30 24 -34 28q-2 12 -2 37z" />
<glyph unicode="&#xd3;" horiz-adv-x="1091" d="M58 446q0 214 147 346q141 128 335 128q152 0 258 -56q240 -128 240 -397q0 -144 -63 -255.5t-177 -171.5t-260 -60q-154 0 -268 65t-178 199q-12 31 -28 104q-6 50 -6 98zM184 428q0 -182 94 -288q102 -120 264 -120q90 0 165 42t124 113t66 161q13 56 13 118 q0 91 -17 160.5t-65 131.5q-48 61 -120.5 93.5t-152.5 32.5q-125 0 -219 -69q-80 -58 -116 -159t-36 -216zM402 972l166 164q9 9 17.5 18.5t16.5 17.5t16.5 14t17.5 8q44 0 54 -27q0 -8 0.5 -13.5t0.5 -9.5t-1.5 -8t-5.5 -8.5t-11 -11t-19 -14.5l-204 -130h-48z" />
<glyph unicode="&#xd4;" horiz-adv-x="1091" d="M58 446q0 214 147 346q141 128 335 128q152 0 258 -56q240 -128 240 -397q0 -144 -63 -255.5t-177 -171.5t-260 -60q-154 0 -268 65t-178 199q-12 31 -28 104q-6 50 -6 98zM184 428q0 -182 94 -288q102 -120 264 -120q90 0 165 42t124 113t66 161q13 56 13 118 q0 91 -17 160.5t-65 131.5q-48 61 -120.5 93.5t-152.5 32.5q-125 0 -219 -69q-80 -58 -116 -159t-36 -216zM338 972l152 196h107l157 -196h-67l-140 135l-140 -135h-69z" />
<glyph unicode="&#xd5;" horiz-adv-x="1091" d="M58 446q0 214 147 346q141 128 335 128q152 0 258 -56q240 -128 240 -397q0 -144 -63 -255.5t-177 -171.5t-260 -60q-154 0 -268 65t-178 199q-12 31 -28 104q-6 50 -6 98zM184 428q0 -182 94 -288q102 -120 264 -120q90 0 165 42t124 113t66 161q13 56 13 118 q0 91 -17 160.5t-65 131.5q-48 61 -120.5 93.5t-152.5 32.5q-125 0 -219 -69q-80 -58 -116 -159t-36 -216zM350 972q2 26 12 50t25 41t34.5 27.5t41.5 10.5q10 0 24.5 -4.5t32 -11.5t36 -15.5t34.5 -15.5t29 -11.5t21 -4.5q40 0 60 54h42q0 -24 -8 -46.5t-23 -40.5t-35 -29 q-20 -12 -42 -12q-10 0 -24.5 5t-32 13t-36.5 17t-35 17t-29 13t-20 5q-43 0 -63 -62h-44z" />
<glyph unicode="&#xd6;" horiz-adv-x="1091" d="M58 446q0 214 147 346q141 128 335 128q152 0 258 -56q240 -128 240 -397q0 -144 -63 -255.5t-177 -171.5t-260 -60q-154 0 -268 65t-178 199q-12 31 -28 104q-6 50 -6 98zM184 428q0 -182 94 -288q102 -120 264 -120q90 0 165 42t124 113t66 161q13 56 13 118 q0 91 -17 160.5t-65 131.5q-48 61 -120.5 93.5t-152.5 32.5q-125 0 -219 -69q-80 -58 -116 -159t-36 -216zM376 1038q0 14 5 26t14.5 21.5t22 15t26.5 5.5t25 -6t20 -15t14.5 -21.5t5.5 -25.5t-5.5 -25t-14.5 -21t-21 -14.5t-24 -5.5q-14 0 -26 5t-21.5 14t-15 21t-5.5 26z M582 1038q0 14 5.5 26t15 21.5t21.5 15t26 5.5t25.5 -6t20.5 -15t14.5 -21.5t5.5 -25.5t-5.5 -25t-14.5 -21t-21 -14.5t-25 -5.5q-14 0 -26 5t-21 14t-15 21t-6 26z" />
<glyph unicode="&#xd7;" horiz-adv-x="794" d="M122 100l220 218l-220 220l61 60l220 -218l217 217l58 -59l-216 -218l219 -220l-61 -60l-218 220l-221 -220z" />
<glyph unicode="&#xd8;" horiz-adv-x="1091" d="M58 446q0 214 147 346q141 128 335 128q98 0 174 -22.5t138 -65.5l80 90l42 -34l-80 -88q144 -124 144 -333q0 -71 -16 -135t-46 -118t-74 -97t-99.5 -74t-122 -47t-142.5 -16q-88 0 -161.5 20t-136.5 64l-91 -102l-39 33l90 101q-28 26 -54 56t-45.5 70.5t-31 95 t-11.5 128.5zM184 428q0 -162 75 -264l542 610q-24 24 -52.5 42.5t-60.5 31t-66 18.5t-67 6q-86 0 -154.5 -31t-116.5 -88.5t-74 -140t-26 -184.5zM293 124q99 -104 249 -104q59 0 109.5 17t91.5 47t72 71t52 89t32 102t11 108q0 44 -4 82t-12 72t-22 65t-36 61z" />
<glyph unicode="&#xd9;" horiz-adv-x="1020" d="M125 895q6 0 20.5 -1.5t28.5 -3t20 -1.5t17.5 1.5t22.5 2.5t18 2q-2 -10 -2 -33l-4 -88l-6 -278q0 -16 -2 -52v-53q0 -80 10 -135q18 -108 93 -161.5t187 -53.5q37 0 84 12t74 31q62 42 92 110q22 52 27 118t8 172q0 26 1 75q1 50 1 76q0 47 -4 141l-4 119q16 0 53 -4 q27 0 39 4q-1 -28 -5 -80.5t-5 -79.5l-13 -363q-4 -108 -22 -159q-26 -84 -74 -129q-102 -102 -278 -102q-132 0 -226 48q-22 10 -59 44q-56 50 -73 122t-17 172l6 146v142l-4 204zM366 1167q10 27 54 27q10 -2 18 -8q11 -8 24.5 -22.5t25.5 -27.5l166 -164h-48l-204 130 q-30 24 -34 28q-2 12 -2 37z" />
<glyph unicode="&#xda;" horiz-adv-x="1020" d="M125 895q6 0 20.5 -1.5t28.5 -3t20 -1.5t17.5 1.5t22.5 2.5t18 2q-2 -10 -2 -33l-4 -88l-6 -278q0 -16 -2 -52v-53q0 -80 10 -135q18 -108 93 -161.5t187 -53.5q37 0 84 12t74 31q62 42 92 110q22 52 27 118t8 172q0 26 1 75q1 50 1 76q0 47 -4 141l-4 119q16 0 53 -4 q27 0 39 4q-1 -28 -5 -80.5t-5 -79.5l-13 -363q-4 -108 -22 -159q-26 -84 -74 -129q-102 -102 -278 -102q-132 0 -226 48q-22 10 -59 44q-56 50 -73 122t-17 172l6 146v142l-4 204zM366 972l166 164q9 9 17.5 18.5t16.5 17.5t16.5 14t17.5 8q44 0 54 -27q0 -8 0.5 -13.5 t0.5 -9.5t-1.5 -8t-5.5 -8.5t-11 -11t-19 -14.5l-204 -130h-48z" />
<glyph unicode="&#xdb;" horiz-adv-x="1020" d="M125 895q6 0 20.5 -1.5t28.5 -3t20 -1.5t17.5 1.5t22.5 2.5t18 2q-2 -10 -2 -33l-4 -88l-6 -278q0 -16 -2 -52v-53q0 -80 10 -135q18 -108 93 -161.5t187 -53.5q37 0 84 12t74 31q62 42 92 110q22 52 27 118t8 172q0 26 1 75q1 50 1 76q0 47 -4 141l-4 119q16 0 53 -4 q27 0 39 4q-1 -28 -5 -80.5t-5 -79.5l-13 -363q-4 -108 -22 -159q-26 -84 -74 -129q-102 -102 -278 -102q-132 0 -226 48q-22 10 -59 44q-56 50 -73 122t-17 172l6 146v142l-4 204zM302 972l152 196h107l157 -196h-67l-140 135l-140 -135h-69z" />
<glyph unicode="&#xdc;" horiz-adv-x="1020" d="M125 895q6 0 20.5 -1.5t28.5 -3t20 -1.5t17.5 1.5t22.5 2.5t18 2q-2 -10 -2 -33l-4 -88l-6 -278q0 -16 -2 -52v-53q0 -80 10 -135q18 -108 93 -161.5t187 -53.5q37 0 84 12t74 31q62 42 92 110q22 52 27 118t8 172q0 26 1 75q1 50 1 76q0 47 -4 141l-4 119q16 0 53 -4 q27 0 39 4q-1 -28 -5 -80.5t-5 -79.5l-13 -363q-4 -108 -22 -159q-26 -84 -74 -129q-102 -102 -278 -102q-132 0 -226 48q-22 10 -59 44q-56 50 -73 122t-17 172l6 146v142l-4 204zM340 1038q0 14 5 26t14.5 21.5t22 15t26.5 5.5t25 -6t20 -15t14.5 -21.5t5.5 -25.5 t-5.5 -25t-14.5 -21t-21 -14.5t-24 -5.5q-14 0 -26 5t-21.5 14t-15 21t-5.5 26zM546 1038q0 14 5.5 26t15 21.5t21.5 15t26 5.5t25.5 -6t20.5 -15t14.5 -21.5t5.5 -25.5t-5.5 -25t-14.5 -21t-21 -14.5t-25 -5.5q-14 0 -26 5t-21 14t-15 21t-6 26z" />
<glyph unicode="&#xdd;" horiz-adv-x="801" d="M35 895q49 -4 71 -4q49 0 74 4q94 -179 127 -237l107 -183q11 -21 14 -23q16 12 39 58q78 130 176 322l33 63q19 0 59 -4q29 0 43 4q-6 -10 -42 -60.5t-50 -72.5l-144 -232q-44 -67 -79 -145l4 -266l4 -119q-45 4 -69 4q-20 0 -58 -4q0 18 2 26l6 130l2 130v82zM274 972 l166 164q9 9 17.5 18.5t16.5 17.5t16.5 14t17.5 8q44 0 54 -27q0 -8 0.5 -13.5t0.5 -9.5t-1.5 -8t-5.5 -8.5t-11 -11t-19 -14.5l-204 -130h-48z" />
<glyph unicode="&#xde;" horiz-adv-x="866" d="M116 0v898h92v-188h244q60 0 107 -5t84 -17t64 -33.5t47 -54.5q40 -66 40 -144q0 -266 -332 -267h-254v-189h-92zM208 268h256q236 0 236 184q0 26 -7 51t-19 46.5t-29 38t-37 24.5q-20 9 -56.5 14.5t-90.5 4.5h-253v-363z" />
<glyph unicode="&#xdf;" horiz-adv-x="794" d="M113 0v618q-1 296 255 296q39 0 78.5 -10t70.5 -30.5t50.5 -52t19.5 -73.5q0 -56 -50 -144q-46 -81 -46 -114q0 -50 98 -115q42 -28 70.5 -50.5t45.5 -43.5t25 -45t8 -54q0 -44 -17 -80t-46.5 -62t-69 -41t-83.5 -15q-140 0 -209 129l71 33q54 -100 136 -100q23 0 46.5 9 t42.5 25t31 39.5t12 53.5q0 19 -3 33.5t-14 28.5t-31 30q-18 16 -50 38q-52 36 -82 61.5t-45 44.5t-18 33.5t-3 30.5q0 41 48 123q54 96 54 141q0 25 -11 46t-31 36.5t-46 24t-54 8.5q-170 0 -170 -238v-614h-83z" />
<glyph unicode="&#xe0;" d="M60 146q0 44 20.5 84t56.5 59q50 28 166 45q87 14 115 30q12 6 20 15q4 12 4 43q0 72 -40 114t-113 42q-93 0 -145 -74q-10 -16 -11 -18h-14v73q105 74 211 74q104 1 162 -61q34 -34 41 -68t7 -94l-4 -156v-48q-2 -32 -2 -48q0 -58 10 -87.5t40 -29.5q22 0 30 4v-29 q-6 0 -8 -4q-9 -2 -17.5 -4.5t-12.5 -3.5q-30 -4 -44 -4q-82 4 -92 80l-12 -12q-82 -82 -192 -82q-72 0 -124 44q-52 46 -52 116zM142 891q10 27 54 27q10 -2 18 -8q11 -8 24.5 -22.5t25.5 -27.5l166 -164h-48l-204 130q-30 24 -34 28q-2 12 -2 37zM168 164q0 -123 129 -123 q57 0 105 49q22 24 24 26q7 5 10 15l6 195q-4 0 -12 -4l-39 -8q-80 -14 -117.5 -25t-71.5 -41t-34 -84z" />
<glyph unicode="&#xe1;" d="M60 146q0 44 20.5 84t56.5 59q50 28 166 45q87 14 115 30q12 6 20 15q4 12 4 43q0 72 -40 114t-113 42q-93 0 -145 -74q-10 -16 -11 -18h-14v73q105 74 211 74q104 1 162 -61q34 -34 41 -68t7 -94l-4 -156v-48q-2 -32 -2 -48q0 -58 10 -87.5t40 -29.5q22 0 30 4v-29 q-6 0 -8 -4q-9 -2 -17.5 -4.5t-12.5 -3.5q-30 -4 -44 -4q-82 4 -92 80l-12 -12q-82 -82 -192 -82q-72 0 -124 44q-52 46 -52 116zM168 164q0 -123 129 -123q57 0 105 49q22 24 24 26q7 5 10 15l6 195q-4 0 -12 -4l-39 -8q-80 -14 -117.5 -25t-71.5 -41t-34 -84zM234 696 l166 164q9 9 17.5 18.5t16.5 17.5t16.5 14t17.5 8q44 0 54 -27q0 -8 0.5 -13.5t0.5 -9.5t-1.5 -8t-5.5 -8.5t-11 -11t-19 -14.5l-204 -130h-48z" />
<glyph unicode="&#xe2;" d="M60 146q0 44 20.5 84t56.5 59q50 28 166 45q87 14 115 30q12 6 20 15q4 12 4 43q0 72 -40 114t-113 42q-93 0 -145 -74q-10 -16 -11 -18h-14v73q105 74 211 74q104 1 162 -61q34 -34 41 -68t7 -94l-4 -156v-48q-2 -32 -2 -48q0 -58 10 -87.5t40 -29.5q22 0 30 4v-29 q-6 0 -8 -4q-9 -2 -17.5 -4.5t-12.5 -3.5q-30 -4 -44 -4q-82 4 -92 80l-12 -12q-82 -82 -192 -82q-72 0 -124 44q-52 46 -52 116zM120 696l152 196h107l157 -196h-67l-140 135l-140 -135h-69zM168 164q0 -123 129 -123q57 0 105 49q22 24 24 26q7 5 10 15l6 195q-4 0 -12 -4 l-39 -8q-80 -14 -117.5 -25t-71.5 -41t-34 -84z" />
<glyph unicode="&#xe3;" d="M60 146q0 44 20.5 84t56.5 59q50 28 166 45q87 14 115 30q12 6 20 15q4 12 4 43q0 72 -40 114t-113 42q-93 0 -145 -74q-10 -16 -11 -18h-14v73q105 74 211 74q104 1 162 -61q34 -34 41 -68t7 -94l-4 -156v-48q-2 -32 -2 -48q0 -58 10 -87.5t40 -29.5q22 0 30 4v-29 q-6 0 -8 -4q-9 -2 -17.5 -4.5t-12.5 -3.5q-30 -4 -44 -4q-82 4 -92 80l-12 -12q-82 -82 -192 -82q-72 0 -124 44q-52 46 -52 116zM132 696q2 26 12 50t25 41t34.5 27.5t41.5 10.5q10 0 24.5 -4.5t32 -11.5t36 -15.5t34.5 -15.5t29 -11.5t21 -4.5q40 0 60 54h42 q0 -24 -8 -46.5t-23 -40.5t-35 -29q-20 -12 -42 -12q-10 0 -24.5 5t-32 13t-36.5 17t-35 17t-29 13t-20 5q-43 0 -63 -62h-44zM168 164q0 -123 129 -123q57 0 105 49q22 24 24 26q7 5 10 15l6 195q-4 0 -12 -4l-39 -8q-80 -14 -117.5 -25t-71.5 -41t-34 -84z" />
<glyph unicode="&#xe4;" d="M60 146q0 44 20.5 84t56.5 59q50 28 166 45q87 14 115 30q12 6 20 15q4 12 4 43q0 72 -40 114t-113 42q-93 0 -145 -74q-10 -16 -11 -18h-14v73q105 74 211 74q104 1 162 -61q34 -34 41 -68t7 -94l-4 -156v-48q-2 -32 -2 -48q0 -58 10 -87.5t40 -29.5q22 0 30 4v-29 q-6 0 -8 -4q-9 -2 -17.5 -4.5t-12.5 -3.5q-30 -4 -44 -4q-82 4 -92 80l-12 -12q-82 -82 -192 -82q-72 0 -124 44q-52 46 -52 116zM158 762q0 14 5 26t14.5 21.5t22 15t26.5 5.5t25 -6t20 -15t14.5 -21.5t5.5 -25.5t-5.5 -25t-14.5 -21t-21 -14.5t-24 -5.5q-14 0 -26 5 t-21.5 14t-15 21t-5.5 26zM168 164q0 -123 129 -123q57 0 105 49q22 24 24 26q7 5 10 15l6 195q-4 0 -12 -4l-39 -8q-80 -14 -117.5 -25t-71.5 -41t-34 -84zM364 762q0 14 5.5 26t15 21.5t21.5 15t26 5.5t25.5 -6t20.5 -15t14.5 -21.5t5.5 -25.5t-5.5 -25t-14.5 -21 t-21 -14.5t-25 -5.5q-14 0 -26 5t-21 14t-15 21t-6 26z" />
<glyph unicode="&#xe5;" d="M60 146q0 44 20.5 84t56.5 59q50 28 166 45q87 14 115 30q12 6 20 15q4 12 4 43q0 72 -40 114t-113 42q-93 0 -145 -74q-10 -16 -11 -18h-14v73q105 74 211 74q104 1 162 -61q34 -34 41 -68t7 -94l-4 -156v-48q-2 -32 -2 -48q0 -58 10 -87.5t40 -29.5q22 0 30 4v-29 q-6 0 -8 -4q-9 -2 -17.5 -4.5t-12.5 -3.5q-30 -4 -44 -4q-82 4 -92 80l-12 -12q-82 -82 -192 -82q-72 0 -124 44q-52 46 -52 116zM168 164q0 -123 129 -123q57 0 105 49q22 24 24 26q7 5 10 15l6 195q-4 0 -12 -4l-39 -8q-80 -14 -117.5 -25t-71.5 -41t-34 -84zM229 804 q0 25 9.5 44.5t25 33.5t35 21t37.5 7q23 0 42.5 -7.5t34 -21.5t23 -33.5t8.5 -43.5q0 -26 -10 -46t-25 -33.5t-34 -21t-39 -7.5t-39 7.5t-34 21.5t-24.5 33.5t-9.5 45.5zM281 802q0 -10 3.5 -20t10.5 -18t17 -14q10 -5 24 -5q12 0 22 4.5t17.5 12.5t12 18t4.5 22 q0 10 -4 20.5t-11 19t-17 13.5q-12 5 -24 5q-14 0 -24 -5t-17 -14t-10.5 -19t-3.5 -20z" />
<glyph unicode="&#xe6;" horiz-adv-x="1043" d="M60 146q0 22 5 43t15 40t24.5 34.5t32.5 25.5q26 14 66.5 24.5t99.5 20.5q48 8 76 14.5t42 16t17.5 23t3.5 34.5q0 36 -10 65t-30 49t-48 31t-65 11q-93 0 -145 -74q-6 -8 -8 -12l-3 -6h-14v73q105 74 211 74q60 0 107 -21t75 -65q82 86 215 86q63 0 112 -18.5t83 -53 t53 -84t23 -111.5l-4 -50h-454q0 -62 15 -113.5t44 -88t72 -56t99 -19.5q24 0 49 6t49.5 16.5t46 25.5t37.5 32q6 6 19 8l-9 -65q-110 -78 -224 -78q-6 0 -21.5 1t-36 5t-44.5 12t-49 20t-49 30t-44 43q-28 -30 -58 -50.5t-62 -33.5t-66 -19t-72 -6q-36 0 -68 11.5t-56 32.5 t-38 50.5t-14 65.5zM168 164q0 -123 129 -123q17 0 34.5 5.5t34 15.5t32.5 24t28 30q8 6 10 15l6 195q-2 0 -12 -4l-39 -8q-52 -10 -93 -20t-70 -25t-44.5 -39.5t-15.5 -65.5zM542 366h22t30 -0.5t34 -1t35 -1t30.5 -1t21.5 -0.5t22 0.5t31 1t35.5 1t35.5 1t30.5 0.5h21.5 q-4 224 -164 224q-44 0 -76.5 -18t-55.5 -49t-36 -71t-17 -86z" />
<glyph unicode="&#xe7;" d="M53 309q0 99 43.5 171t121.5 110t175 38q120 0 207 -52l-30 -86h-11q-23 32 -35 42q-22 24 -58 40t-70 16q-109 0 -169.5 -81t-60.5 -191q0 -120 62 -197q32 -40 80 -63t100 -23q92 -1 180 81l8 -4l-6 -61q-90 -65 -201 -65q-220 0 -303 168q-33 70 -33 157zM212 -245 l4 44l54 -1h9q25 0 44 5t31 13t18.5 20t6.5 25q0 28 -25.5 42.5t-69.5 14.5l25 82h51l-20 -67q26 0 47.5 -6.5t36 -17.5t22.5 -25t8 -30t-9 -34t-28.5 -34t-52 -26t-78.5 -10q-21 0 -39.5 1t-34.5 4z" />
<glyph unicode="&#xe8;" d="M45 307q0 64 21.5 130t60.5 108q83 88 217 88q126 0 195 -71q69 -72 75 -196l-4 -50l-266 4l-186 -4q0 -127 59.5 -202t169.5 -75q48 0 98.5 22.5t84.5 57.5q6 6 18 8l-8 -65q-110 -78 -226 -78q-18 0 -92 14q-52 12 -97 45t-73 80q-47 74 -47 184zM160 366q28 0 86 -2 t86 -2q30 0 88 2q59 2 88 2q-4 224 -164 224q-86 0 -131 -66t-53 -158zM184 891q10 27 54 27q10 -2 18 -8q11 -8 24.5 -22.5t25.5 -27.5l166 -164h-48l-204 130q-30 24 -34 28q-2 12 -2 37z" />
<glyph unicode="&#xe9;" d="M45 307q0 64 21.5 130t60.5 108q83 88 217 88q126 0 195 -71q69 -72 75 -196l-4 -50l-266 4l-186 -4q0 -127 59.5 -202t169.5 -75q48 0 98.5 22.5t84.5 57.5q6 6 18 8l-8 -65q-110 -78 -226 -78q-18 0 -92 14q-52 12 -97 45t-73 80q-47 74 -47 184zM160 366q28 0 86 -2 t86 -2q30 0 88 2q59 2 88 2q-4 224 -164 224q-86 0 -131 -66t-53 -158zM229 696l166 164q9 9 17.5 18.5t16.5 17.5t16.5 14t17.5 8q44 0 54 -27q0 -8 0.5 -13.5t0.5 -9.5t-1.5 -8t-5.5 -8.5t-11 -11t-19 -14.5l-204 -130h-48z" />
<glyph unicode="&#xea;" d="M45 307q0 64 21.5 130t60.5 108q83 88 217 88q126 0 195 -71q69 -72 75 -196l-4 -50l-266 4l-186 -4q0 -127 59.5 -202t169.5 -75q48 0 98.5 22.5t84.5 57.5q6 6 18 8l-8 -65q-110 -78 -226 -78q-18 0 -92 14q-52 12 -97 45t-73 80q-47 74 -47 184zM140 696l152 196h107 l157 -196h-67l-140 135l-140 -135h-69zM160 366q28 0 86 -2t86 -2q30 0 88 2q59 2 88 2q-4 224 -164 224q-86 0 -131 -66t-53 -158z" />
<glyph unicode="&#xeb;" d="M45 307q0 64 21.5 130t60.5 108q83 88 217 88q126 0 195 -71q69 -72 75 -196l-4 -50l-266 4l-186 -4q0 -127 59.5 -202t169.5 -75q48 0 98.5 22.5t84.5 57.5q6 6 18 8l-8 -65q-110 -78 -226 -78q-18 0 -92 14q-52 12 -97 45t-73 80q-47 74 -47 184zM160 366q28 0 86 -2 t86 -2q30 0 88 2q59 2 88 2q-4 224 -164 224q-86 0 -131 -66t-53 -158zM176 762q0 14 5 26t14.5 21.5t22 15t26.5 5.5t25 -6t20 -15t14.5 -21.5t5.5 -25.5t-5.5 -25t-14.5 -21t-21 -14.5t-24 -5.5q-14 0 -26 5t-21.5 14t-15 21t-5.5 26zM382 762q0 14 5.5 26t15 21.5 t21.5 15t26 5.5t25.5 -6t20.5 -15t14.5 -21.5t5.5 -25.5t-5.5 -25t-14.5 -21t-21 -14.5t-25 -5.5q-14 0 -26 5t-21 14t-15 21t-6 26z" />
<glyph unicode="&#xec;" horiz-adv-x="364" d="M0 891q10 27 54 27q10 -2 18 -8q11 -8 24.5 -22.5t25.5 -27.5l166 -164h-48l-204 130q-30 24 -34 28q-2 12 -2 37zM127 0q4 71 6 147.5t2 164.5q0 101 -1 176q-2 74 -7 132q11 -2 27 -3t36 -1q32 0 52 4q-4 -71 -6 -146.5t-2 -161.5q0 -76 2 -152q2 -77 6 -160 q-18 2 -33 3t-25 1q-20 0 -34 -1t-23 -3z" />
<glyph unicode="&#xed;" horiz-adv-x="364" d="M78 696l166 164q9 9 17.5 18.5t16.5 17.5t16.5 14t17.5 8q44 0 54 -27q0 -8 0.5 -13.5t0.5 -9.5t-1.5 -8t-5.5 -8.5t-11 -11t-19 -14.5l-204 -130h-48zM127 0q4 71 6 147.5t2 164.5q0 101 -1 176q-2 74 -7 132q11 -2 27 -3t36 -1q32 0 52 4q-4 -71 -6 -146.5t-2 -161.5 q0 -76 2 -152q2 -77 6 -160q-18 2 -33 3t-25 1q-20 0 -34 -1t-23 -3z" />
<glyph unicode="&#xee;" horiz-adv-x="364" d="M-25 696l152 196h107l157 -196h-67l-140 135l-140 -135h-69zM127 0q4 71 6 147.5t2 164.5q0 101 -1 176q-2 74 -7 132q11 -2 27 -3t36 -1q32 0 52 4q-4 -71 -6 -146.5t-2 -161.5q0 -76 2 -152q2 -77 6 -160q-18 2 -33 3t-25 1q-20 0 -34 -1t-23 -3z" />
<glyph unicode="&#xef;" horiz-adv-x="364" d="M13 762q0 14 5 26t14.5 21.5t22 15t26.5 5.5t25 -6t20 -15t14.5 -21.5t5.5 -25.5t-5.5 -25t-14.5 -21t-21 -14.5t-24 -5.5q-14 0 -26 5t-21.5 14t-15 21t-5.5 26zM127 0q4 71 6 147.5t2 164.5q0 101 -1 176q-2 74 -7 132q11 -2 27 -3t36 -1q32 0 52 4q-4 -71 -6 -146.5 t-2 -161.5q0 -76 2 -152q2 -77 6 -160q-18 2 -33 3t-25 1q-20 0 -34 -1t-23 -3zM219 762q0 14 5.5 26t15 21.5t21.5 15t26 5.5t25.5 -6t20.5 -15t14.5 -21.5t5.5 -25.5t-5.5 -25t-14.5 -21t-21 -14.5t-25 -5.5q-14 0 -26 5t-21 14t-15 21t-6 26z" />
<glyph unicode="&#xf0;" horiz-adv-x="723" d="M62 312q0 74 18 135t53 104t85 67t115 24q63 0 170 -58q-55 118 -121 191l-170 -79l-16 36l160 73q-30 28 -58 51.5t-53 41.5h83q38 -30 82 -68l130 63l16 -35l-114 -55q212 -244 212 -488q0 -72 -20 -133t-58.5 -105t-93.5 -68.5t-124 -24.5q-70 0 -125 23t-93 66 t-58 103t-20 136zM147 310q0 -59 13.5 -107.5t40.5 -83.5t66 -54t90 -19q50 0 89 20.5t66 57t41.5 86.5t14.5 110q0 34 -6 66.5t-17 62t-28 54.5t-41 44t-54 29t-68 10q-54 0 -93 -22t-64 -59t-37.5 -88t-12.5 -107z" />
<glyph unicode="&#xf1;" horiz-adv-x="729" d="M102 0q2 26 4 72t2 84q4 156 4 233q0 45 -4 127q-2 34 -2 104q22 -4 52 -4q35 0 51 4v-28l-4 -41v-35v-12q76 124 213 124q110 0 166 -65q31 -40 37.5 -79.5t6.5 -106.5l-4 -191l4 -126v-50v-10q-24 4 -56 4q-35 0 -54 -4q0 20 2 56t2 56q2 50 6 144q0 16 2 45v43 q0 100 -18 131q-44 88 -133 88q-101 1 -145 -79q-28 -56 -29 -183v-215l4 -78v-8q-33 4 -53 4q-36 0 -54 -4zM192 696q2 26 12 50t25 41t34.5 27.5t41.5 10.5q10 0 24.5 -4.5t32 -11.5t36 -15.5t34.5 -15.5t29 -11.5t21 -4.5q40 0 60 54h42q0 -24 -8 -46.5t-23 -40.5 t-35 -29q-20 -12 -42 -12q-10 0 -24.5 5t-32 13t-36.5 17t-35 17t-29 13t-20 5q-43 0 -63 -62h-44z" />
<glyph unicode="&#xf2;" horiz-adv-x="729" d="M45 316q0 142 94 229.5t238 87.5q140 -1 227 -101q78 -84 78 -220q0 -93 -47 -179q-89 -147 -281 -147q-68 0 -133 26q-56 25 -102 76q-43 48 -58.5 100t-15.5 128zM162 295q0 -110 50 -189q48 -78 152 -78q84 0 146 78q38 56 51 144q4 20 4 68q0 107 -44.5 189.5 t-143.5 82.5q-114 0 -164.5 -86t-50.5 -209zM186 891q10 27 54 27q10 -2 18 -8q11 -8 24.5 -22.5t25.5 -27.5l166 -164h-48l-204 130q-30 24 -34 28q-2 12 -2 37z" />
<glyph unicode="&#xf3;" horiz-adv-x="729" d="M45 316q0 142 94 229.5t238 87.5q140 -1 227 -101q78 -84 78 -220q0 -93 -47 -179q-89 -147 -281 -147q-68 0 -133 26q-56 25 -102 76q-43 48 -58.5 100t-15.5 128zM162 295q0 -110 50 -189q48 -78 152 -78q84 0 146 78q38 56 51 144q4 20 4 68q0 107 -44.5 189.5 t-143.5 82.5q-114 0 -164.5 -86t-50.5 -209zM265 696l166 164q9 9 17.5 18.5t16.5 17.5t16.5 14t17.5 8q44 0 54 -27q0 -8 0.5 -13.5t0.5 -9.5t-1.5 -8t-5.5 -8.5t-11 -11t-19 -14.5l-204 -130h-48z" />
<glyph unicode="&#xf4;" horiz-adv-x="729" d="M45 316q0 142 94 229.5t238 87.5q140 -1 227 -101q78 -84 78 -220q0 -93 -47 -179q-89 -147 -281 -147q-68 0 -133 26q-56 25 -102 76q-43 48 -58.5 100t-15.5 128zM156 696l152 196h107l157 -196h-67l-140 135l-140 -135h-69zM162 295q0 -110 50 -189q48 -78 152 -78 q84 0 146 78q38 56 51 144q4 20 4 68q0 107 -44.5 189.5t-143.5 82.5q-114 0 -164.5 -86t-50.5 -209z" />
<glyph unicode="&#xf5;" horiz-adv-x="729" d="M45 316q0 142 94 229.5t238 87.5q140 -1 227 -101q78 -84 78 -220q0 -93 -47 -179q-89 -147 -281 -147q-68 0 -133 26q-56 25 -102 76q-43 48 -58.5 100t-15.5 128zM162 295q0 -110 50 -189q48 -78 152 -78q84 0 146 78q38 56 51 144q4 20 4 68q0 107 -44.5 189.5 t-143.5 82.5q-114 0 -164.5 -86t-50.5 -209zM180 696q2 26 12 50t25 41t34.5 27.5t41.5 10.5q10 0 24.5 -4.5t32 -11.5t36 -15.5t34.5 -15.5t29 -11.5t21 -4.5q40 0 60 54h42q0 -24 -8 -46.5t-23 -40.5t-35 -29q-20 -12 -42 -12q-10 0 -24.5 5t-32 13t-36.5 17t-35 17 t-29 13t-20 5q-43 0 -63 -62h-44z" />
<glyph unicode="&#xf6;" horiz-adv-x="729" d="M45 316q0 142 94 229.5t238 87.5q140 -1 227 -101q78 -84 78 -220q0 -93 -47 -179q-89 -147 -281 -147q-68 0 -133 26q-56 25 -102 76q-43 48 -58.5 100t-15.5 128zM162 295q0 -110 50 -189q48 -78 152 -78q84 0 146 78q38 56 51 144q4 20 4 68q0 107 -44.5 189.5 t-143.5 82.5q-114 0 -164.5 -86t-50.5 -209zM206 762q0 14 5 26t14.5 21.5t22 15t26.5 5.5t25 -6t20 -15t14.5 -21.5t5.5 -25.5t-5.5 -25t-14.5 -21t-21 -14.5t-24 -5.5q-14 0 -26 5t-21.5 14t-15 21t-5.5 26zM412 762q0 14 5.5 26t15 21.5t21.5 15t26 5.5t25.5 -6t20.5 -15 t14.5 -21.5t5.5 -25.5t-5.5 -25t-14.5 -21t-21 -14.5t-25 -5.5q-14 0 -26 5t-21 14t-15 21t-6 26z" />
<glyph unicode="&#xf7;" horiz-adv-x="794" d="M76 291v82h642v-82h-642zM342 66v110h109v-110h-109zM342 488v108h109v-108h-109z" />
<glyph unicode="&#xf8;" horiz-adv-x="729" d="M45 314q0 71 25.5 129.5t69.5 100.5t105 65t132 23q109 0 187 -62l52 64l42 -34l-56 -67l2 -2q78 -84 78 -221q0 -74 -24.5 -134t-68 -103t-103.5 -66t-132 -23q-42 0 -86 11q-42 11 -80 33l-52 -61l-39 33l49 60q-30 27 -49.5 54t-31 57.5t-16 65.5t-4.5 77zM162 294 q0 -96 38 -168l316 386q-45 76 -139 76q-58 0 -99.5 -23.5t-67 -64t-36.5 -94.5q-12 -52 -12 -112zM230 80q48 -54 134 -53q39 0 75.5 17.5t64.5 53.5t44.5 90t16.5 128q0 78 -24 142z" />
<glyph unicode="&#xf9;" horiz-adv-x="729" d="M96 246l4 188l-4 129v47v10q24 -4 58 -4q37 0 55 4q-6 -48 -6 -96q-9 -156 -9 -248q0 -97 23 -139q39 -79 137 -79q64 0 102 38q43 36 56 104q6 42 6 122v212l-2 76v10q16 -4 54 -4q36 0 54 4q-8 -102 -8 -153q-2 -79 -2 -235q0 -23 2 -72v-72q0 -60 2 -88q-40 4 -50 4 q-35 0 -52 -4v26l2 78v12q-70 -122 -211 -122q-105 0 -165 66q-30 33 -38 76t-8 110zM198 891q10 27 54 27q10 -2 18 -8q11 -8 24.5 -22.5t25.5 -27.5l166 -164h-48l-204 130q-30 24 -34 28q-2 12 -2 37z" />
<glyph unicode="&#xfa;" horiz-adv-x="729" d="M96 246l4 188l-4 129v47v10q24 -4 58 -4q37 0 55 4q-6 -48 -6 -96q-9 -156 -9 -248q0 -97 23 -139q39 -79 137 -79q64 0 102 38q43 36 56 104q6 42 6 122v212l-2 76v10q16 -4 54 -4q36 0 54 4q-8 -102 -8 -153q-2 -79 -2 -235q0 -23 2 -72v-72q0 -60 2 -88q-40 4 -50 4 q-35 0 -52 -4v26l2 78v12q-70 -122 -211 -122q-105 0 -165 66q-30 33 -38 76t-8 110zM240 696l166 164q9 9 17.5 18.5t16.5 17.5t16.5 14t17.5 8q44 0 54 -27q0 -8 0.5 -13.5t0.5 -9.5t-1.5 -8t-5.5 -8.5t-11 -11t-19 -14.5l-204 -130h-48z" />
<glyph unicode="&#xfb;" horiz-adv-x="729" d="M96 246l4 188l-4 129v47v10q24 -4 58 -4q37 0 55 4q-6 -48 -6 -96q-9 -156 -9 -248q0 -97 23 -139q39 -79 137 -79q64 0 102 38q43 36 56 104q6 42 6 122v212l-2 76v10q16 -4 54 -4q36 0 54 4q-8 -102 -8 -153q-2 -79 -2 -235q0 -23 2 -72v-72q0 -60 2 -88q-40 4 -50 4 q-35 0 -52 -4v26l2 78v12q-70 -122 -211 -122q-105 0 -165 66q-30 33 -38 76t-8 110zM156 696l152 196h107l157 -196h-67l-140 135l-140 -135h-69z" />
<glyph unicode="&#xfc;" horiz-adv-x="729" d="M96 246l4 188l-4 129v47v10q24 -4 58 -4q37 0 55 4q-6 -48 -6 -96q-9 -156 -9 -248q0 -97 23 -139q39 -79 137 -79q64 0 102 38q43 36 56 104q6 42 6 122v212l-2 76v10q16 -4 54 -4q36 0 54 4q-8 -102 -8 -153q-2 -79 -2 -235q0 -23 2 -72v-72q0 -60 2 -88q-40 4 -50 4 q-35 0 -52 -4v26l2 78v12q-70 -122 -211 -122q-105 0 -165 66q-30 33 -38 76t-8 110zM194 762q0 14 5 26t14.5 21.5t22 15t26.5 5.5t25 -6t20 -15t14.5 -21.5t5.5 -25.5t-5.5 -25t-14.5 -21t-21 -14.5t-24 -5.5q-14 0 -26 5t-21.5 14t-15 21t-5.5 26zM400 762q0 14 5.5 26 t15 21.5t21.5 15t26 5.5t25.5 -6t20.5 -15t14.5 -21.5t5.5 -25.5t-5.5 -25t-14.5 -21t-21 -14.5t-25 -5.5q-14 0 -26 5t-21 14t-15 21t-6 26z" />
<glyph unicode="&#xfd;" d="M35 620l43 -4h32l50 2l10 -34l68 -174l110 -264l10 -9l14 33l46 98l51 136l80 216q16 -4 39 -4q30 0 47 4l-309 -684l-82 -204q-18 6 -39 6q-25 0 -49 -6l61 110l53 102l23 48l6 10l-17 43zM242 696l166 164q9 9 17.5 18.5t16.5 17.5t16.5 14t17.5 8q44 0 54 -27 q0 -8 0.5 -13.5t0.5 -9.5t-1.5 -8t-5.5 -8.5t-11 -11t-19 -14.5l-204 -130h-48z" />
<glyph unicode="&#xfe;" horiz-adv-x="729" d="M84 -266q0 2 1 7.5t2 17t1.5 34t1.5 58t2 87.5v965q26 -2 36 -3.5t14 -1.5h4q14 0 25 2t19 3v-407q0 2 4 6q3 5 6.5 11t7.5 12.5t7 10.5q22 28 43.5 47t44.5 30t51 17q28 5 62 5q61 0 109.5 -24t83 -64.5t53 -95.5t18.5 -115q0 -78 -20 -141.5t-57 -108.5t-90 -69.5 t-117 -24.5q-134 0 -206 124v-186l8 -207q-20 2 -32 4l-18 3q-7 1 -10 2h-4q-8 0 -17 -2t-21 -2q-6 0 -12 1v5zM190 295q0 -24 3 -51.5t11 -55.5t22 -54t35 -46t51 -32.5t70 -12.5h3q31 0 56.5 10.5t45.5 30t34.5 46t24.5 58t14.5 67.5t4.5 73v12q0 30 -4.5 60t-13.5 57 t-24 51t-35 42t-46 28t-59 10q-35 0 -63 -11.5t-49 -32t-36.5 -48.5t-25 -60.5t-14.5 -68t-5 -72.5z" />
<glyph unicode="&#xff;" d="M35 620l43 -4h32l50 2l10 -34l68 -174l110 -264l10 -9l14 33l46 98l51 136l80 216q16 -4 39 -4q30 0 47 4l-309 -684l-82 -204q-18 6 -39 6q-25 0 -49 -6l61 110l53 102l23 48l6 10l-17 43zM158 762q0 14 5 26t14.5 21.5t22 15t26.5 5.5t25 -6t20 -15t14.5 -21.5 t5.5 -25.5t-5.5 -25t-14.5 -21t-21 -14.5t-24 -5.5q-14 0 -26 5t-21.5 14t-15 21t-5.5 26zM364 762q0 14 5.5 26t15 21.5t21.5 15t26 5.5t25.5 -6t20.5 -15t14.5 -21.5t5.5 -25.5t-5.5 -25t-14.5 -21t-21 -14.5t-25 -5.5q-14 0 -26 5t-21 14t-15 21t-6 26z" />
<glyph unicode="&#x152;" horiz-adv-x="1254" d="M58 446q0 214 147 346q141 128 335 128q115 0 207 -33l-1 5v9h142l188 -8q22 0 56 1t80 3q0 -3 -1 -8t-2 -10.5t-1 -11v-9.5q0 -24 4 -39q-9 0 -25.5 1.5t-45.5 3t-72 4t-105 4.5h-96v-328l168 -2q34 2 58 3.5t40.5 3t27 2.5t19.5 1q-6 -38 -6 -39q0 -2 6 -39 q-18 2 -38 4t-38.5 4t-34.5 3t-27 1l-181 -2v-268v-66t2 -48q118 0 235 6q56 0 119 10q0 -26 0.5 -47t1.5 -35q-38 1 -64 2t-44 1.5t-29 0.5h-19h-120q-31 0 -60.5 -1t-55.5 -2.5t-48 -2.5t-37 -1l2 23q-75 -36 -207 -36q-64 0 -125 12t-114 37t-97.5 63.5t-76.5 90.5 t-49.5 117.5t-17.5 145.5zM184 428q0 -96 28 -171t76 -128t114 -81t140 -28q39 0 71.5 6.5t58 18t45 27.5t33.5 35l3 59v563q0 15 -3 85q-42 30 -93 44t-102 14q-86 0 -154.5 -31t-116.5 -88.5t-74 -140t-26 -184.5z" />
<glyph unicode="&#x153;" horiz-adv-x="1164" d="M45 316q0 71 25.5 129.5t69.5 100t105 64.5t132 23q76 0 135 -29q58 -28 104 -86q40 59 102 87t138 28q63 0 111.5 -18.5t83 -53t53.5 -84t22 -111.5l-4 -50h-453q0 -62 15 -113.5t44 -88t71.5 -56t98.5 -19.5q24 0 49.5 6t50 16.5t45.5 25.5t38 32q7 6 19 8l-9 -65 q-110 -78 -225 -78q-6 0 -22 1t-37.5 6t-47 13t-51 21.5t-50 33t-42.5 45.5q-90 -118 -262 -118q-28 0 -57.5 5t-58.5 16t-56.5 28t-51 39t-41.5 51q-19 29 -29 63q-16 50 -15 128zM162 295q0 -53 12 -101t37 -85t63 -59t90 -22q54 0 92 25t62.5 66t35.5 93t11 106 q0 52 -10.5 100.5t-33.5 87t-58.5 61.5t-85.5 23q-58 0 -99.5 -24t-67 -64t-37 -94t-11.5 -113zM671 366h21.5t30 -0.5t34.5 -1t34.5 -1t30.5 -1t22 -0.5t22 0.5t31 1t35 1t35 1t31 0.5h22q-4 224 -164 224q-44 0 -77 -18t-55.5 -49t-35.5 -71t-17 -86z" />
<glyph unicode="&#x178;" horiz-adv-x="801" d="M35 895q49 -4 71 -4q49 0 74 4q94 -179 127 -237l107 -183q11 -21 14 -23q16 12 39 58q78 130 176 322l33 63q19 0 59 -4q29 0 43 4q-6 -10 -42 -60.5t-50 -72.5l-144 -232q-44 -67 -79 -145l4 -266l4 -119q-45 4 -69 4q-20 0 -58 -4q0 18 2 26l6 130l2 130v82zM230 1038 q0 14 5 26t14.5 21.5t22 15t26.5 5.5t25 -6t20 -15t14.5 -21.5t5.5 -25.5t-5.5 -25t-14.5 -21t-21 -14.5t-24 -5.5q-14 0 -26 5t-21.5 14t-15 21t-5.5 26zM436 1038q0 14 5.5 26t15 21.5t21.5 15t26 5.5t25.5 -6t20.5 -15t14.5 -21.5t5.5 -25.5t-5.5 -25t-14.5 -21 t-21 -14.5t-25 -5.5q-14 0 -26 5t-21 14t-15 21t-6 26z" />
<glyph unicode="&#x2c6;" horiz-adv-x="436" d="M10 696l152 196h107l157 -196h-67l-140 135l-140 -135h-69z" />
<glyph unicode="&#x2dc;" horiz-adv-x="436" d="M22 696q2 26 12 50t25 41t34.5 27.5t41.5 10.5q10 0 24.5 -4.5t32 -11.5t36 -15.5t34.5 -15.5t29 -11.5t21 -4.5q40 0 60 54h42q0 -24 -8 -46.5t-23 -40.5t-35 -29q-20 -12 -42 -12q-10 0 -24.5 5t-32 13t-36.5 17t-35 17t-29 13t-20 5q-43 0 -63 -62h-44z" />
<glyph unicode="&#x2000;" horiz-adv-x="682" />
<glyph unicode="&#x2001;" horiz-adv-x="1365" />
<glyph unicode="&#x2002;" horiz-adv-x="682" />
<glyph unicode="&#x2003;" horiz-adv-x="1365" />
<glyph unicode="&#x2004;" horiz-adv-x="455" />
<glyph unicode="&#x2005;" horiz-adv-x="341" />
<glyph unicode="&#x2006;" horiz-adv-x="227" />
<glyph unicode="&#x2007;" horiz-adv-x="227" />
<glyph unicode="&#x2008;" horiz-adv-x="170" />
<glyph unicode="&#x2009;" horiz-adv-x="273" />
<glyph unicode="&#x200a;" horiz-adv-x="75" />
<glyph unicode="&#x2010;" horiz-adv-x="436" d="M53 268v80h328v-80h-328z" />
<glyph unicode="&#x2011;" horiz-adv-x="436" d="M53 268v80h328v-80h-328z" />
<glyph unicode="&#x2012;" horiz-adv-x="436" d="M53 268v80h328v-80h-328z" />
<glyph unicode="&#x2013;" horiz-adv-x="676" d="M82 368v82h614v-82h-614z" />
<glyph unicode="&#x2014;" horiz-adv-x="1278" d="M82 368v82h1228v-82h-1228z" />
<glyph unicode="&#x2018;" horiz-adv-x="307" d="M62 641q2 68 26 117.5t68 105.5q8 8 14 8q4 0 12 -4q6 -3 6 -12q0 -4 -4 -16q-8 -15 -18 -35.5t-16 -41.5t-6 -42q3 -16 26 -33q22 -18 26 -28q8 -22 9 -44q1 -56 -61 -63q-35 0 -58.5 26.5t-23.5 61.5z" />
<glyph unicode="&#x2019;" horiz-adv-x="299" d="M53 815q-1 57 63 65q35 0 57.5 -26t22.5 -62q-4 -116 -92 -224q-7 -8 -14 -9q-4 0 -12 4q-8 7 -8 15q0 2 4 14q8 16 18 35.5t17 40t7 42.5q-2 14 -9 21t-25 20t-20 21q-8 24 -9 43z" />
<glyph unicode="&#x201a;" horiz-adv-x="299" d="M54 75v15q0 60 63 66q18 0 32.5 -7.5t25 -20t16.5 -28t6 -32.5q0 -30 -4.5 -56.5t-14.5 -52t-25 -51t-37 -52.5q-2 -2 -5 -6t-7 -7l-8 -6t-8 -3q-6 0 -12 5t-6 13l3 7t7 15q6 12 13 25t12 27t8.5 29t3.5 31q-1 8 -3 12t-6 8t-10 8q-6 6 -16 12q-11 8 -16.5 16t-8.5 16.5 t-3 16.5z" />
<glyph unicode="&#x201c;" horiz-adv-x="524" d="M62 641q2 68 25 118.5t67 104.5q8 8 16 8q4 0 12 -4q6 -3 6 -12q0 -4 -4 -16l-18 -36t-17 -40.5t-7 -42.5q3 -18 27 -35q23 -16 27 -26q8 -22 9 -42q1 -58 -63 -65q-34 0 -57 26.5t-23 61.5zM280 641q2 68 24.5 118.5t65.5 104.5q8 8 17 8q5 0 13 -4l2 -7q2 -9 2 -21 q-10 -18 -20.5 -38t-18 -41t-7.5 -40q3 -18 28 -35q26 -16 30 -26q8 -22 8 -42q0 -58 -66 -65q-30 0 -54 27.5t-24 60.5z" />
<glyph unicode="&#x201d;" horiz-adv-x="518" d="M53 815q-1 57 63 65q35 0 57.5 -27t22.5 -63q-2 -69 -25 -118t-67 -104q-2 0 -6 -3t-8 -4q-10 0 -14 4q0 1 -1 8t-1 19q42 84 42 120q-2 14 -9 21t-25 20t-20 21q-8 20 -9 41zM272 815q0 59 62 65q36 0 59 -27t23 -63q-2 -68 -25 -117t-69 -105q-1 0 -4.5 -3t-8.5 -4 q-10 0 -14 4q-6 5 -6 11q0 4 4 16q41 84 41 120q-4 17 -27 34.5t-27 27.5q-8 22 -8 41z" />
<glyph unicode="&#x201e;" horiz-adv-x="518" d="M54 92q0 30 16 48t48 18q18 0 32 -7.5t25 -20t17 -28t6 -32.5q0 -30 -5 -56.5t-14.5 -52t-25 -51t-37.5 -52.5q-2 -2 -5 -6t-7 -7l-8 -6t-7 -3q-6 0 -12.5 5t-6.5 13l3 7t8 15l12.5 25t11.5 27t9 29t4 31q-1 8 -3.5 12t-6.5 8t-10 8q-6 6 -15 12q-11 8 -17 16t-8.5 16.5 t-3 16.5t-0.5 15zM269 92q0 30 15.5 48t47.5 18q18 0 33 -7.5t25 -20t16 -28t6 -32.5q0 -30 -4 -56.5t-14 -52t-26 -51.5q-14 -25 -36 -52q-2 -2 -5 -6t-7 -7l-8 -6t-8 -3q-6 0 -12 5t-6 13l3 7q3 7 7 15l12.5 25t12 27t8.5 29t3 31q-1 8 -3 12t-6 8t-10 8q-6 6 -15 12 q-11 8 -16.5 16t-8.5 16.5t-3.5 16.5t-0.5 15z" />
<glyph unicode="&#x2022;" horiz-adv-x="651" d="M64 418q2 96 66 164t159 72q72 0 131 -33.5t93 -90t34 -122.5t-33 -122t-88.5 -89t-122.5 -33q-66 0 -120.5 35t-86.5 93.5t-32 125.5z" />
<glyph unicode="&#x2026;" horiz-adv-x="923" d="M74 86q0 28 25 53t57 25q34 0 58 -23t24 -59q-2 -34 -26 -57q-22 -23 -56 -25q-33 0 -57.5 26t-24.5 60zM74 86q0 28 25 53t57 25q34 0 58 -23t24 -59q-2 -34 -26 -57q-22 -23 -56 -25q-33 0 -57.5 26t-24.5 60zM74 86q0 28 25 53t57 25q34 0 58 -23t24 -59 q-2 -34 -26 -57q-22 -23 -56 -25q-33 0 -57.5 26t-24.5 60zM74 86q0 28 25 53t57 25q34 0 58 -23t24 -59q-2 -34 -26 -57q-22 -23 -56 -25q-33 0 -57.5 26t-24.5 60zM74 86q0 28 25 53t57 25q34 0 58 -23t24 -59q-2 -34 -26 -57q-22 -23 -56 -25q-33 0 -57.5 26t-24.5 60z M74 86q0 28 25 53t57 25q34 0 58 -23t24 -59q-2 -34 -26 -57q-22 -23 -56 -25q-33 0 -57.5 26t-24.5 60zM402 86q0 28 24 53q26 25 56 25q36 0 58.5 -23t22.5 -59q0 -34 -23.5 -57t-57.5 -25q-32 0 -56 26t-24 60zM402 86q0 28 24 53q26 25 56 25q36 0 58.5 -23t22.5 -59 q0 -34 -23.5 -57t-57.5 -25q-32 0 -56 26t-24 60zM402 86q0 28 24 53q26 25 56 25q36 0 58.5 -23t22.5 -59q0 -34 -23.5 -57t-57.5 -25q-32 0 -56 26t-24 60zM727 86q0 28 25.5 53t56.5 25q34 0 58 -23t24 -59q-2 -34 -25.5 -57t-56.5 -25q-33 0 -57.5 26t-24.5 60zM727 86 q0 28 25.5 53t56.5 25q34 0 58 -23t24 -59q-2 -34 -25.5 -57t-56.5 -25q-33 0 -57.5 26t-24.5 60zM727 86q0 28 25.5 53t56.5 25q34 0 58 -23t24 -59q-2 -34 -25.5 -57t-56.5 -25q-33 0 -57.5 26t-24.5 60z" />
<glyph unicode="&#x202f;" horiz-adv-x="273" />
<glyph unicode="&#x2039;" horiz-adv-x="416" d="M56 322l192 278h92l-162 -278l162 -278h-92z" />
<glyph unicode="&#x203a;" horiz-adv-x="416" d="M78 44l162 280l-162 276h90l186 -273l-186 -283h-90z" />
<glyph unicode="&#x205f;" horiz-adv-x="341" />
<glyph unicode="&#x20ac;" horiz-adv-x="729" d="M-20 326l27 75h45q0 10 -1 23.5t-1 34.5v7q0 8 0.5 22t1.5 24h-72l27 75h57q12 75 49 138t91 109t122 72t144 26q44 0 74.5 -2t54.5 -8t45.5 -15t48.5 -23v-108h-10q-24 18 -46.5 32.5t-46.5 24t-52 14.5t-62 5q-52 0 -102 -15.5t-93 -48t-76.5 -82.5t-51.5 -119h293 l-26 -75h-282q-1 -12 -1 -21v-17v-13q0 -20 1.5 -33.5t3.5 -26.5h237l-27 -75h-196q18 -69 52 -118t77 -81t92 -48t97 -18q46 2 77 7t53.5 14.5t40 23.5t38.5 34h10v-106q-24 -12 -41.5 -20t-33.5 -14t-31 -9t-32.5 -5t-39 -2.5t-48.5 -0.5q-75 0 -141 22.5t-119 66.5 t-91 108t-56 146h-80z" />
<glyph unicode="&#x2122;" horiz-adv-x="1250" d="M138 821v74h406v-74h-162v-423h-84v423h-160zM600 398v497h121l126 -397l121 397h120v-497h-76v416l-128 -416h-75l-133 423v-423h-76z" />
</font>
</defs>
</svg>
